<svg width="72" height="71" viewBox="0 0 72 71" fill="none" xmlns="http://www.w3.org/2000/svg">
<path d="M64.0509 49.9407V57.9407C65.7739 57.4773 67.0509 55.8694 67.0509 53.9401C67.0509 52.0098 65.773 50.403 64.0509 49.9407Z" fill="white"/>
<path d="M31.0665 54.5741L28.2396 52.8786L30.0425 61.8907L25.6103 66.322L21.178 61.8909L22.9809 52.8788L17.914 55.9183L18.2296 49.7395C14.829 52.0901 12.5933 56.0115 12.5933 60.4492V66.9577H35.3729V60.0696C33.0396 59.2408 31.3138 57.1234 31.0665 54.5741Z" fill="white"/>
<path d="M20.2895 51.9632L23.0371 50.3143L21.6746 48.0439C21.2624 48.1752 20.86 48.3271 20.4663 48.4963L20.2895 51.9632Z" fill="white"/>
<path d="M27.311 47.5526C26.7513 47.48 26.185 47.4323 25.6101 47.4323C25.033 47.4323 24.469 47.4832 23.9125 47.5559L25.1394 49.6017H26.0799L27.311 47.5526Z" fill="white"/>
<path d="M25.6102 63.2542L27.6864 61.177L25.8054 51.7711H25.4149L23.534 61.177L25.6102 63.2542Z" fill="white"/>
<path d="M5.00003 28.9916C5.00003 30.7857 6.46016 32.2458 8.25428 32.2458H9.33903V25.7373H8.25428C6.46016 25.7373 5.00003 27.1974 5.00003 28.9916Z" fill="white"/>
<path d="M13.678 12.7205H15.8475C15.8475 17.5053 19.7406 21.3985 24.5255 21.3985H24.8151C25.9238 21.3985 27.0085 21.1902 28.039 20.778L28.1074 20.7508C25.9129 18.7647 24.5255 15.9053 24.5255 12.7205H26.695C26.695 17.5053 30.5881 21.3985 35.373 21.3985H35.6626C36.7712 21.3985 37.856 21.1902 38.8865 20.778L39.9766 20.3418C37.1757 18.872 35.373 15.9595 35.373 12.7205H37.5425C37.5425 15.4963 39.3127 17.9522 41.9466 18.8297L43.3101 19.2842C43.7407 19.4285 44.038 19.8266 44.0521 20.2811C44.0651 20.7356 43.7929 21.1511 43.3699 21.3203L41.8816 21.9158V23.568H42.9664C43.7116 23.568 44.4221 23.7198 45.0686 23.9932C45.8106 22.2305 46.2206 20.3301 46.2206 18.4155C46.2206 10.4904 39.7729 4.0426 31.8478 4.0426H23.441C20.3853 4.0426 17.4651 5.50273 15.6309 7.94773L15.3055 8.3816H14.7631C9.37914 8.38148 5.00002 12.7616 5.00002 18.1442V19.9525C5.00002 21.3952 5.33302 22.8075 5.94376 24.1048C6.64776 23.7697 7.42439 23.5678 8.25426 23.5678H9.33901V22.4831C9.33901 19.5488 11.6853 17.1657 14.5979 17.0756C14.0099 15.7415 13.678 14.2695 13.678 12.7205Z" fill="white"/>
<path d="M23.4406 45.2627H27.7796C34.3586 45.2627 39.7119 39.9095 39.7119 33.3305V22.7835L39.6901 22.7921C38.4036 23.3063 37.0488 23.5678 35.6625 23.5678H35.3729C33.4995 23.5678 31.7358 23.0905 30.1965 22.2509L28.8439 22.7921C27.5563 23.3063 26.2014 23.5678 24.8151 23.5678H24.5255C20.9881 23.5678 17.85 21.8571 15.8682 19.2288H14.7628C12.9687 19.2288 11.5085 20.6889 11.5085 22.483V33.3305C11.5085 39.9095 16.8618 45.2627 23.4406 45.2627ZM33.2034 25.7373C34.402 25.7373 35.3729 26.7081 35.3729 27.9068C35.3729 29.1054 34.402 30.0763 33.2034 30.0763C32.0048 30.0763 31.0339 29.1054 31.0339 27.9068C31.0339 26.7081 32.0048 25.7373 33.2034 25.7373ZM31.0339 35.5V36.5848C31.0339 39.5798 28.6051 42.0085 25.6101 42.0085C22.6151 42.0085 20.1864 39.5798 20.1864 36.5848V35.5H31.0339ZM18.017 25.7373C19.2157 25.7373 20.1865 26.7081 20.1865 27.9068C20.1865 29.1054 19.2157 30.0763 18.017 30.0763C16.8184 30.0763 15.8475 29.1054 15.8475 27.9068C15.8475 26.7081 16.8183 25.7373 18.017 25.7373Z" fill="white"/>
<path d="M31.2834 52.1748C31.5621 51.1888 32.0676 50.2993 32.7403 49.5617C31.7413 48.9032 30.6695 48.3988 29.5456 48.0431L28.1831 50.3135L31.2834 52.1748Z" fill="white"/>
<path d="M60.0509 43.9407H62.0509V63.9407H60.0509V43.9407Z" fill="white"/>
<path d="M37.5424 66.9577H38.6271H39.7119V60.4492H37.5424V66.9577Z" fill="white"/>
<path d="M46.2204 28.9916C46.2204 27.1974 44.7603 25.7373 42.9662 25.7373H41.8814V32.2458H42.9662C44.7603 32.2458 46.2204 30.7858 46.2204 28.9916Z" fill="white"/>
<path d="M44.0509 56.8912C48.9979 57.0575 53.8119 58.4375 58.0509 60.9407V46.9407C53.8119 49.4449 48.9979 50.8238 44.0509 50.9901V56.8912Z" fill="white"/>
<path d="M37.5424 49.6018C35.1494 49.6018 33.2034 51.5478 33.2034 53.9408C33.2034 56.3338 35.1494 58.2798 37.5424 58.2798H41.8825L41.8814 49.6018H37.5424Z" fill="white"/>
</svg>
