<svg width="72" height="71" viewBox="0 0 72 71" fill="none" xmlns="http://www.w3.org/2000/svg">
<path d="M64.0509 49.9404V57.9404C65.7739 57.477 67.0509 55.8691 67.0509 53.9398C67.0509 52.0096 65.773 50.4027 64.0509 49.9404Z" fill="white"/>
<path d="M31.0665 54.5739L28.2396 52.8784L30.0425 61.8905L25.6103 66.3218L21.178 61.8906L22.9809 52.8785L17.914 55.918L18.2296 49.7393C14.829 52.0899 12.5933 56.0113 12.5933 60.449V66.9575H35.3729V60.0694C33.0396 59.2405 31.3138 57.1231 31.0665 54.5739Z" fill="white"/>
<path d="M20.2895 51.9632L23.0371 50.3143L21.6746 48.0439C21.2624 48.1752 20.86 48.3271 20.4663 48.4963L20.2895 51.9632Z" fill="white"/>
<path d="M27.311 47.5525C26.7513 47.4799 26.185 47.4321 25.6101 47.4321C25.033 47.4321 24.469 47.4831 23.9125 47.5558L25.1394 49.6016H26.0799L27.311 47.5525Z" fill="white"/>
<path d="M25.6102 63.2541L27.6864 61.1769L25.8054 51.771H25.4149L23.534 61.1769L25.6102 63.2541Z" fill="white"/>
<path d="M5.00003 28.9916C5.00003 30.7857 6.46016 32.2458 8.25428 32.2458H9.33903V25.7373H8.25428C6.46016 25.7373 5.00003 27.1974 5.00003 28.9916Z" fill="white"/>
<path d="M13.678 12.7204H15.8475C15.8475 17.5052 19.7406 21.3983 24.5255 21.3983H24.8151C25.9238 21.3983 27.0085 21.1901 28.039 20.7779L28.1074 20.7507C25.9129 18.7646 24.5255 15.9052 24.5255 12.7204H26.695C26.695 17.5052 30.5881 21.3983 35.373 21.3983H35.6626C36.7712 21.3983 37.856 21.1901 38.8865 20.7779L39.9766 20.3417C37.1757 18.8719 35.373 15.9594 35.373 12.7204H37.5425C37.5425 15.4962 39.3127 17.9521 41.9466 18.8296L43.3101 19.2841C43.7407 19.4283 44.038 19.8265 44.0521 20.281C44.0651 20.7355 43.7929 21.151 43.3699 21.3202L41.8816 21.9157V23.5678H42.9664C43.7116 23.5678 44.4221 23.7197 45.0686 23.9931C45.8106 22.2304 46.2206 20.33 46.2206 18.4154C46.2206 10.4902 39.7729 4.04248 31.8478 4.04248H23.441C20.3853 4.04248 17.4651 5.50261 15.6309 7.9476L15.3055 8.38148H14.7631C9.37914 8.38135 5.00002 12.7615 5.00002 18.1441V19.9524C5.00002 21.3951 5.33302 22.8073 5.94376 24.1047C6.64776 23.7696 7.42439 23.5677 8.25426 23.5677H9.33901V22.483C9.33901 19.5487 11.6853 17.1656 14.5979 17.0755C14.0099 15.7414 13.678 14.2694 13.678 12.7204Z" fill="white"/>
<path d="M23.4406 45.2625H27.7796C34.3586 45.2625 39.7119 39.9093 39.7119 33.3303V22.7833L39.6901 22.7919C38.4036 23.306 37.0488 23.5675 35.6625 23.5675H35.3729C33.4995 23.5675 31.7358 23.0903 30.1965 22.2506L28.8439 22.7919C27.5563 23.306 26.2014 23.5675 24.8151 23.5675H24.5255C20.9881 23.5675 17.85 21.8569 15.8682 19.2285H14.7628C12.9687 19.2285 11.5085 20.6886 11.5085 22.4828V33.3303C11.5085 39.9093 16.8618 45.2625 23.4406 45.2625ZM33.2034 25.737C34.402 25.737 35.3729 26.7079 35.3729 27.9065C35.3729 29.1051 34.402 30.076 33.2034 30.076C32.0048 30.076 31.0339 29.1051 31.0339 27.9065C31.0339 26.7079 32.0048 25.737 33.2034 25.737ZM31.0339 35.4998V36.5845C31.0339 39.5795 28.6051 42.0083 25.6101 42.0083C22.6151 42.0083 20.1864 39.5795 20.1864 36.5845V35.4998H31.0339ZM18.017 25.737C19.2157 25.737 20.1865 26.7079 20.1865 27.9065C20.1865 29.1051 19.2157 30.076 18.017 30.076C16.8184 30.076 15.8475 29.1051 15.8475 27.9065C15.8475 26.7079 16.8183 25.737 18.017 25.737Z" fill="white"/>
<path d="M31.2834 52.1747C31.5621 51.1887 32.0676 50.2992 32.7403 49.5616C31.7413 48.9031 30.6695 48.3987 29.5456 48.043L28.1831 50.3133L31.2834 52.1747Z" fill="white"/>
<path d="M60.0509 43.9404H62.0509V63.9404H60.0509V43.9404Z" fill="white"/>
<path d="M37.5424 66.9577H38.6271H39.7119V60.4492H37.5424V66.9577Z" fill="white"/>
<path d="M46.2204 28.9916C46.2204 27.1974 44.7603 25.7373 42.9662 25.7373H41.8814V32.2458H42.9662C44.7603 32.2458 46.2204 30.7858 46.2204 28.9916Z" fill="white"/>
<path d="M44.0509 56.891C48.9979 57.0573 53.8119 58.4372 58.0509 60.9404V46.9404C53.8119 49.4446 48.9979 50.8236 44.0509 50.9899V56.891Z" fill="white"/>
<path d="M37.5424 49.6016C35.1494 49.6016 33.2034 51.5476 33.2034 53.9406C33.2034 56.3336 35.1494 58.2796 37.5424 58.2796H41.8825L41.8814 49.6016H37.5424Z" fill="white"/>
</svg>
