<svg width="72" height="71" viewBox="0 0 72 71" fill="none" xmlns="http://www.w3.org/2000/svg">
<path d="M17.9405 65.0061L15.5853 67.3613C15.1715 67.7739 14.4992 67.7739 14.0854 67.3613L4.13875 57.4146C3.72495 57.0008 3.72495 56.3285 4.13764 55.9147L6.49284 53.5595C6.72248 53.3288 7.02201 53.2289 7.30934 53.2289C7.57337 53.2289 7.82964 53.3132 8.01712 53.4597L17.875 63.3154C18.3498 63.859 18.3765 64.5701 17.9405 65.0061ZM29.1718 56.4739L18.5129 60.8193L11.5083 53.8147L10.5066 48.6683C10.3535 46.1678 11.069 43.9202 12.5212 42.3327C13.9112 40.815 15.897 39.9863 18.3465 39.9375H18.3665C20.2668 39.9375 21.8388 40.8727 22.4712 42.3826C23.058 43.7826 22.6797 45.3091 21.5082 46.5006L19.7576 47.9605L21.1787 49.6645L23.007 48.1325C23.5872 47.5456 24.0265 46.9011 24.3516 46.2299L26.0256 47.5567C27.0418 48.3787 28.281 48.8125 29.58 48.8125C29.8319 48.8125 30.0859 48.7959 30.3411 48.7637C32.0329 48.544 33.6137 47.5878 34.6765 46.1389L32.8871 44.8265C32.1815 45.7884 31.1509 46.4218 30.056 46.5627C29.0919 46.6847 28.1578 46.4262 27.4134 45.8239L24.9473 43.8702C24.9717 43.0815 24.8397 42.2883 24.518 41.5228C23.5473 39.2098 21.1344 37.7177 18.3654 37.7177C18.3565 37.7177 18.3476 37.7177 18.3387 37.7177C18.3277 37.7177 18.2189 37.7199 18.2167 37.7177C17.1195 37.7409 16.0845 37.904 15.1227 38.1947C15.9569 34.597 19.3904 32.1996 24.052 32.1708C30.7471 33.2624 36.5979 38.938 37.1105 44.7655C37.1094 49.8675 33.9898 54.4637 29.1718 56.4739Z" fill="white"/>
<path d="M56.9772 28.664C54.9648 33.4909 50.3675 36.6094 45.362 36.6138C39.4402 36.0968 33.7635 30.2471 32.6719 23.5509C32.7007 18.8893 35.0981 15.4558 38.6958 14.6216C38.404 15.5834 38.242 16.6184 38.2188 17.7156C38.2188 17.7223 38.2199 17.8321 38.2199 17.8387C38.2099 20.6177 39.7031 23.0439 42.025 24.0169C42.7295 24.3131 43.4583 24.4584 44.1861 24.4584C44.2482 24.4584 44.3103 24.4506 44.3725 24.4484L46.3316 26.9201C46.9273 27.6567 47.1869 28.5919 47.0616 29.5549C46.9207 30.6487 46.2883 31.6804 45.3265 32.386L46.64 34.1743C48.0889 33.1115 49.044 31.5318 49.2626 29.8389C49.4667 28.2691 49.0385 26.737 48.0645 25.5334L46.7277 23.8471C47.4188 23.5099 48.0855 23.0406 48.7035 22.4282L50.1634 20.6776L48.4605 19.2565L47.0716 20.9284C45.8091 22.1775 44.2804 22.5591 42.8826 21.9701C41.3683 21.3344 40.432 19.7546 40.4375 17.7611C40.4863 15.3959 41.315 13.4101 42.8326 12.0201C44.419 10.5668 46.6655 9.85347 49.1683 10.0043L54.3158 11.0061L61.3204 18.0085L56.9772 28.664ZM67.8624 15.0842L65.5072 17.4394C65.0712 17.8754 64.3601 17.8521 63.8708 17.4261L53.9608 7.51713C53.6546 7.12663 53.6191 6.43327 54.0595 5.99284L56.4147 3.63764C56.8285 3.22495 57.5008 3.22495 57.9146 3.63764L67.8613 13.5843C68.275 13.9992 68.275 14.6715 67.8624 15.0842Z" fill="white"/>
<path d="M48.518 48.4883L50.0866 46.9196L61.1786 58.0116L59.6099 59.5802L48.518 48.4883Z" fill="white"/>
<path d="M42.6562 49.9219H44.875V63.2344H42.6562V49.9219Z" fill="white"/>
<path d="M51.5312 41.0469H64.8438V43.2656H51.5312V41.0469Z" fill="white"/>
<path d="M8.58807 9.66003L10.1567 8.09138L20.1397 18.0743L18.571 19.643L8.58807 9.66003Z" fill="white"/>
<path d="M6.04688 23.2969H17.1406V25.5156H6.04688V23.2969Z" fill="white"/>
<path d="M24.9062 5.54688H27.125V16.6406H24.9062V5.54688Z" fill="white"/>
</svg>
