<svg width="29" height="29" viewBox="0 0 29 29" fill="none" xmlns="http://www.w3.org/2000/svg">
<path d="M19.3332 2.41663V7.24996M9.6665 2.41663V7.24996" stroke="white" stroke-width="1.2" stroke-linecap="round" stroke-linejoin="round"/>
<path d="M15.7083 4.83337H13.2917C8.73475 4.83337 6.45631 4.83337 5.04065 6.24902C3.625 7.66468 3.625 9.94313 3.625 14.5V16.9167C3.625 21.4736 3.625 23.7521 5.04065 25.1677C6.45631 26.5834 8.73475 26.5834 13.2917 26.5834H15.7083C20.2652 26.5834 22.5438 26.5834 23.9593 25.1677C25.375 23.7521 25.375 21.4736 25.375 16.9167V14.5C25.375 9.94313 25.375 7.66468 23.9593 6.24902C22.5438 4.83337 20.2652 4.83337 15.7083 4.83337Z" stroke="white" stroke-width="1.2" stroke-linecap="round" stroke-linejoin="round"/>
<path d="M3.625 12.0834H25.375" stroke="white" stroke-width="1.2" stroke-linecap="round" stroke-linejoin="round"/>
<path d="M13.2915 16.9166H19.3332M9.6665 16.9166H9.67735M15.7082 21.75H9.6665M19.3332 21.75H19.3223" stroke="white" stroke-width="1.2" stroke-linecap="round" stroke-linejoin="round"/>
</svg>
