<svg width="30" height="30" viewBox="0 0 30 30" fill="none" xmlns="http://www.w3.org/2000/svg">
<path d="M21.25 7.5C24.182 7.5 25.023 7.5 26.0329 8.27492C26.2929 8.47442 26.5256 8.70715 26.7251 8.96715C27.5 9.97705 27.5 11.443 27.5 14.375V20C27.5 23.5355 27.5 25.3032 26.4016 26.4016C25.3032 27.5 23.5355 27.5 20 27.5H10C6.46446 27.5 4.6967 27.5 3.59835 26.4016C2.5 25.3032 2.5 23.5355 2.5 20V14.375C2.5 11.443 2.5 9.97705 3.27493 8.96715C3.47443 8.70715 3.70715 8.47442 3.96715 8.27492C4.97705 7.5 5.81802 7.5 8.75 7.5" stroke="white" stroke-width="1.5" stroke-linecap="round"/>
<path d="M21.25 8.75L20.1428 5.98179C19.665 4.78745 19.2493 3.43263 18.0208 2.82444C17.3655 2.5 16.577 2.5 15 2.5C13.423 2.5 12.6345 2.5 11.9792 2.82444C10.7508 3.43263 10.335 4.78745 9.85729 5.98179L8.75 8.75" stroke="white" stroke-width="1.5" stroke-linecap="round" stroke-linejoin="round"/>
<path d="M14.9995 7.5H15.0108" stroke="white" stroke-width="2" stroke-linecap="round" stroke-linejoin="round"/>
<path d="M10.625 18.125H19.375M15 22.5V13.75" stroke="white" stroke-width="1.5" stroke-linecap="round"/>
</svg>
