<svg width="30" height="31" viewBox="0 0 30 31" fill="none" xmlns="http://www.w3.org/2000/svg">
<path d="M0 15.5C0 7.21573 6.71573 0.5 15 0.5C23.2843 0.5 30 7.21573 30 15.5C30 23.7843 23.2843 30.5 15 30.5C6.71573 30.5 0 23.7843 0 15.5Z" fill="#ED1C24"/>
<path d="M16.244 10.6314C16.6911 10.147 16.9147 9.90475 17.1522 9.76347C17.7254 9.42258 18.4312 9.41198 19.014 9.73551C19.2554 9.86959 19.4858 10.105 19.9467 10.5757C20.4075 11.0465 20.638 11.2819 20.7692 11.5286C21.0859 12.1239 21.0756 12.8449 20.7418 13.4304C20.6035 13.6731 20.3664 13.9015 19.8923 14.3582L14.2502 19.7924C13.3516 20.6579 12.9023 21.0907 12.3407 21.31C11.7792 21.5294 11.1619 21.5132 9.92719 21.4809L9.75921 21.4766C9.38334 21.4667 9.1954 21.4618 9.08615 21.3378C8.9769 21.2138 8.99182 21.0224 9.02165 20.6395L9.03785 20.4316C9.1218 19.3539 9.16378 18.8152 9.37422 18.3308C9.58465 17.8464 9.94764 17.4532 10.6736 16.6666L16.244 10.6314Z" stroke="white" stroke-linejoin="round"/>
<path d="M15.6001 10.7001L19.8 14.9" stroke="white" stroke-linejoin="round"/>
<path d="M16.1997 21.4998H20.9996" stroke="white" stroke-linecap="round" stroke-linejoin="round"/>
</svg>
