<svg width="22" height="32" viewBox="0 0 22 32" fill="none" xmlns="http://www.w3.org/2000/svg">
<path d="M11.4014 6.79796L14.3213 5.82465C15.2075 5.52924 15.6507 5.38153 15.8846 5.61544C16.1185 5.84935 15.9708 6.29247 15.6753 7.17871L14.702 10.0986C14.1986 11.6088 13.9469 12.3639 13.4054 12.9054C12.8639 13.4469 12.1088 13.6986 10.5986 14.202L7.67871 15.1753C6.79247 15.4708 6.34935 15.6185 6.11544 15.3846C5.88153 15.1507 6.02924 14.7075 6.32465 13.8213L7.29796 10.9014C7.80136 9.3912 8.05306 8.6361 8.59457 8.09457C9.1361 7.55306 9.8912 7.30136 11.4014 6.79796Z" fill="white" stroke="white" stroke-width="1.5" stroke-linecap="round" stroke-linejoin="round"/>
<path d="M11.0001 10.5L10.9937 10.5064" stroke="#252525" stroke-width="2" stroke-linecap="round" stroke-linejoin="round"/>
<path d="M1.5 10.5C1.5 6.02166 1.5 3.78249 2.89124 2.39124C4.28249 1 6.52166 1 11 1C15.4783 1 17.7175 1 19.1088 2.39124C20.5 3.78249 20.5 6.02166 20.5 10.5C20.5 14.9783 20.5 17.2175 19.1088 18.6088C17.7175 20 15.4783 20 11 20C6.52166 20 4.28249 20 2.89124 18.6088C1.5 17.2175 1.5 14.9783 1.5 10.5Z" stroke="white" stroke-width="1.5" stroke-linecap="round" stroke-linejoin="round"/>
<rect x="3" y="28.5" width="16" height="3" rx="1.5" fill="#ED1C24"/>
</svg>
