<svg width="22" height="32" viewBox="0 0 22 32" fill="none" xmlns="http://www.w3.org/2000/svg">
<path d="M4.98148 9.74725C4.89446 12.4698 8.10256 15.8255 11.1105 16.8804M4.98148 9.74725C4.67692 10.27 1.56612 12.7638 1.51173 13.8202C1.24816 15.918 4.81222 19.859 7.56025 19.9935C8.58647 20.1391 10.0099 18.4122 11.4528 17.1292C12.2475 16.4225 13.3928 16.2591 17.9772 15.1214C19.6408 14.8323 21.6394 11.9627 18.6766 9.53025M4.98148 9.74725C5.9097 7.54609 7.51438 3.29079 10.6614 1.61038C11.9394 0.884252 15.2588 0.215672 18.5114 3.30787C19.6304 4.24897 21.5701 6.31043 19.7647 8.68555C18.561 10.0884 16.741 9.68225 16.5642 12.1084" stroke="white" stroke-width="1.5" stroke-linecap="round" stroke-linejoin="round"/>
<path d="M4.5 10.502L11 17.502L7 20.002L3 17.002L1.5 14.002L4.5 10.502Z" fill="white"/>
<rect x="3" y="28.502" width="16" height="3" rx="1.5" fill="#ED1C24"/>
</svg>
