<svg width="53" height="53" viewBox="0 0 53 53" fill="none" xmlns="http://www.w3.org/2000/svg">
<rect width="53" height="53" rx="11" fill="#ED1C24"/>
<path d="M31.3332 14.4166V19.25M21.6665 14.4166V19.25" stroke="white" stroke-width="1.2" stroke-linecap="round" stroke-linejoin="round"/>
<path d="M27.7083 16.8334H25.2917C20.7348 16.8334 18.4563 16.8334 17.0406 18.249C15.625 19.6647 15.625 21.9431 15.625 26.5V28.9167C15.625 33.4736 15.625 35.7521 17.0406 37.1677C18.4563 38.5834 20.7348 38.5834 25.2917 38.5834H27.7083C32.2652 38.5834 34.5438 38.5834 35.9593 37.1677C37.375 35.7521 37.375 33.4736 37.375 28.9167V26.5C37.375 21.9431 37.375 19.6647 35.9593 18.249C34.5438 16.8334 32.2652 16.8334 27.7083 16.8334Z" stroke="white" stroke-width="1.2" stroke-linecap="round" stroke-linejoin="round"/>
<path d="M15.625 24.0834H37.375" stroke="white" stroke-width="1.2" stroke-linecap="round" stroke-linejoin="round"/>
<path d="M25.2915 28.9166H31.3332M21.6665 28.9166H21.6774M27.7082 33.75H21.6665M31.3332 33.75H31.3223" stroke="white" stroke-width="1.2" stroke-linecap="round" stroke-linejoin="round"/>
</svg>
