<svg width="25" height="25" viewBox="0 0 25 25" fill="none" xmlns="http://www.w3.org/2000/svg">
<path d="M12.5 22.5C18.0228 22.5 22.5 18.0228 22.5 12.5C22.5 6.97715 18.0228 2.5 12.5 2.5C6.97715 2.5 2.5 6.97715 2.5 12.5C2.5 18.0228 6.97715 22.5 12.5 22.5Z" stroke="white" stroke-width="1.5" stroke-linecap="round" stroke-linejoin="round"/>
<path d="M7.5 8.87931H12M12 8.87931H15M12 8.87931V7.5M17.5 8.87931H15M15 8.87931C14.4725 10.7656 13.3679 12.5487 12.1071 14.1158M12.1071 14.1158C11.0631 15.4134 9.91205 16.5628 8.89286 17.5M12.1071 14.1158C11.4643 13.3621 10.5643 12.1426 10.3071 11.5909M12.1071 14.1158L14.0357 16.1207" stroke="white" stroke-width="1.5" stroke-linecap="round" stroke-linejoin="round"/>
</svg>
