<svg width="12" height="16" viewBox="0 0 12 16" fill="none" xmlns="http://www.w3.org/2000/svg">
<path d="M7.66659 6.00016C7.66659 6.92063 6.92039 7.66683 5.99992 7.66683C5.07945 7.66683 4.33325 6.92063 4.33325 6.00016C4.33325 5.07969 5.07945 4.3335 5.99992 4.3335C6.92039 4.3335 7.66659 5.07969 7.66659 6.00016Z" stroke="white"/>
<path d="M6.83818 11.6626C6.61332 11.8791 6.31279 12.0002 6.00005 12.0002C5.68725 12.0002 5.38672 11.8791 5.16185 11.6626C3.10279 9.66736 0.343379 7.4385 1.68906 4.20265C2.41665 2.45304 4.16321 1.3335 6.00005 1.3335C7.83685 1.3335 9.58339 2.45305 10.311 4.20265C11.655 7.43443 8.90232 9.67423 6.83818 11.6626Z" stroke="white"/>
<path d="M10 13.3335C10 14.0699 8.20913 14.6668 6 14.6668C3.79086 14.6668 2 14.0699 2 13.3335" stroke="white" stroke-linecap="round"/>
</svg>
