<svg width="25" height="25" viewBox="0 0 25 25" fill="none" xmlns="http://www.w3.org/2000/svg">
<path d="M21.5 11.6834V8.78029C21.5 7.14029 21.5 6.32029 21.0959 5.78529C20.6918 5.2503 19.7781 4.99056 17.9507 4.4711C16.7022 4.1162 15.6016 3.68863 14.7223 3.29829C13.5234 2.7661 12.924 2.5 12.5 2.5C12.076 2.5 11.4766 2.7661 10.2777 3.29829C9.39839 3.68863 8.29784 4.1162 7.04933 4.4711C5.22193 4.99056 4.30822 5.2503 3.90411 5.78529C3.5 6.32029 3.5 7.14029 3.5 8.78029V11.6834C3.5 17.3085 8.56277 20.6835 11.094 22.0194C11.7011 22.3398 12.0046 22.5 12.5 22.5C12.9954 22.5 13.2989 22.3398 13.906 22.0194C16.4372 20.6835 21.5 17.3085 21.5 11.6834Z" stroke="white" stroke-width="1.5" stroke-linecap="round" stroke-linejoin="round"/>
<path d="M12.5 7.5V9.5" stroke="white" stroke-width="1.5" stroke-linecap="round" stroke-linejoin="round"/>
</svg>
