<svg width="43" height="43" viewBox="0 0 43 43" fill="none" xmlns="http://www.w3.org/2000/svg">
<path d="M21.5 0.5C33.098 0.5 42.5 9.90202 42.5 21.5C42.5 33.098 33.098 42.5 21.5 42.5C9.90202 42.5 0.5 33.098 0.5 21.5C0.5 9.90202 9.90202 0.5 21.5 0.5Z" stroke="white"/>
<path d="M13.25 16.9165H16" stroke="white" stroke-width="1.375" stroke-linecap="round" stroke-linejoin="round"/>
<path d="M13.25 26.0835H18.75" stroke="white" stroke-width="1.375" stroke-linecap="round" stroke-linejoin="round"/>
<path d="M27 26.0835H29.75" stroke="white" stroke-width="1.375" stroke-linecap="round" stroke-linejoin="round"/>
<path d="M24.25 16.9165H29.75" stroke="white" stroke-width="1.375" stroke-linecap="round" stroke-linejoin="round"/>
<path d="M16 16.9165C16 16.0623 16 15.6352 16.1396 15.2982C16.3256 14.849 16.6825 14.4921 17.1317 14.3061C17.4687 14.1665 17.8958 14.1665 18.75 14.1665C19.6042 14.1665 20.0313 14.1665 20.3683 14.3061C20.8175 14.4921 21.1744 14.849 21.3605 15.2982C21.5 15.6352 21.5 16.0623 21.5 16.9165C21.5 17.7707 21.5 18.1978 21.3605 18.5348C21.1744 18.984 20.8175 19.3409 20.3683 19.527C20.0313 19.6665 19.6042 19.6665 18.75 19.6665C17.8958 19.6665 17.4687 19.6665 17.1317 19.527C16.6825 19.3409 16.3256 18.984 16.1396 18.5348C16 18.1978 16 17.7707 16 16.9165Z" stroke="white" stroke-width="1.375"/>
<path d="M21.5 26.0835C21.5 25.2293 21.5 24.8022 21.6395 24.4652C21.8256 24.016 22.1826 23.6591 22.6317 23.473C22.9687 23.3335 23.3958 23.3335 24.25 23.3335C25.1042 23.3335 25.5313 23.3335 25.8683 23.473C26.3175 23.6591 26.6744 24.016 26.8605 24.4652C27 24.8022 27 25.2293 27 26.0835C27 26.9377 27 27.3648 26.8605 27.7018C26.6744 28.1509 26.3175 28.5079 25.8683 28.694C25.5313 28.8335 25.1042 28.8335 24.25 28.8335C23.3958 28.8335 22.9687 28.8335 22.6317 28.694C22.1826 28.5079 21.8256 28.1509 21.6395 27.7018C21.5 27.3648 21.5 26.9377 21.5 26.0835Z" stroke="white" stroke-width="1.375"/>
</svg>
