<svg width="24" height="24" viewBox="0 0 24 24" fill="none" xmlns="http://www.w3.org/2000/svg">
<path d="M14.7314 2.42285C15.1223 2.36729 15.5244 2.41193 15.8945 2.55664C16.3175 2.72213 16.6808 3.01125 16.9297 3.38672H16.9287L18.2012 5.30176C18.2796 5.41963 18.3871 5.52212 18.5176 5.59961L20.5469 6.7998V6.80078C20.9365 7.03176 21.2462 7.37497 21.4268 7.78711C21.6074 8.1998 21.6488 8.65878 21.542 9.09766L21.0068 11.2998C20.9748 11.4319 20.9747 11.569 21.0068 11.7012L21.541 13.9014L21.5742 14.0664C21.6357 14.4534 21.5852 14.8506 21.4268 15.2129C21.2461 15.6256 20.936 15.9701 20.5459 16.2012H20.5449L18.5166 17.4004C18.3868 17.477 18.2791 17.58 18.2002 17.6992V17.7002L16.9287 19.6123L16.9297 19.6133C16.6803 19.9896 16.316 20.2774 15.8945 20.4424C15.473 20.6072 15.0091 20.6438 14.5664 20.5479V20.5469L12.2354 20.043C12.0805 20.0094 11.9185 20.0094 11.7637 20.043H11.7627L9.43262 20.5479C8.53147 20.7427 7.57935 20.3822 7.07031 19.6133V19.6123L5.80176 17.7002V17.6992C5.74182 17.61 5.66511 17.5307 5.57617 17.4639L5.48242 17.4004L3.45605 16.2012C3.06712 15.9712 2.75571 15.6283 2.57422 15.2148C2.39268 14.8011 2.35159 14.3415 2.45801 13.9033L2.99316 11.7012L3.01172 11.6016C3.02375 11.5013 3.01717 11.3997 2.99316 11.3008L2.45801 9.09766V9.09668C2.35176 8.6577 2.39429 8.19926 2.5752 7.78711C2.75647 7.37432 3.06651 7.03181 3.45508 6.80176L5.48145 5.60156C5.6149 5.52177 5.72279 5.41896 5.7998 5.30273V5.30176L7.06934 3.38672C7.31815 3.01124 7.68086 2.72212 8.10352 2.55664H8.10449C8.52746 2.39128 8.99197 2.35719 9.43359 2.45312L11.7637 2.95898C11.9185 2.99254 12.0805 2.99258 12.2354 2.95898L14.5654 2.45312L14.7314 2.42285Z" stroke="white" stroke-width="1.2" stroke-linecap="round" stroke-linejoin="round"/>
<path d="M9.10352 12.2373L10.5518 13.5276L14.8966 9.47241" stroke="white" stroke-width="1.5" stroke-linecap="round" stroke-linejoin="round"/>
</svg>
