<svg width="113" height="36" viewBox="0 0 113 36" fill="none" xmlns="http://www.w3.org/2000/svg">
<mask id="mask0_117_2505" style="mask-type:luminance" maskUnits="userSpaceOnUse" x="0" y="0" width="113" height="36">
<path d="M20.4814 13.7765H26.8933C26.9391 14.8066 26.9575 15.4687 26.9575 15.763C27.0241 17.0721 26.7759 18.3781 26.2338 19.5705C25.9018 20.1298 25.4501 20.608 24.9115 20.9706C24.3729 21.3333 23.7608 21.5712 23.1194 21.6674C20.4732 22.1228 17.7879 22.3077 15.1045 22.2192C11.12 22.2192 8.27122 22.1456 6.57663 21.9893C5.25498 21.9211 3.95709 21.6093 2.74778 21.0696C2.02824 20.7145 1.4315 20.1506 1.03488 19.451C0.605989 18.5905 0.35368 17.6522 0.292925 16.6919C0.201326 15.7722 0.155518 14.0065 0.155518 11.5141C0.155518 9.0218 0.201326 7.32039 0.292925 6.24436C0.337539 5.38374 0.520021 4.53598 0.833357 3.73366C1.16584 3.04086 1.6632 2.44096 2.28148 1.98702C2.89975 1.53308 3.6199 1.23906 4.37824 1.13097C6.15527 0.732442 9.74597 0.536244 15.1503 0.542376C17.8555 0.542376 19.8219 0.603685 21.0493 0.726309C22.0568 0.797536 23.0464 1.03041 23.9805 1.41607C24.8756 1.81321 25.591 2.53141 25.9865 3.43015C26.4372 4.68454 26.6364 6.01602 26.5727 7.34799C26.5727 7.44915 26.5727 7.79865 26.5727 8.39644H20.1608C20.1548 7.9278 20.112 7.46035 20.0326 6.99851C19.9816 6.77023 19.8597 6.56413 19.6845 6.40993C19.1204 6.1076 18.4919 5.94668 17.8525 5.94088C16.8541 5.84892 15.3518 5.79373 13.3366 5.79373C11.3215 5.79373 9.95663 5.83973 9.1872 5.9225C8.60997 5.9495 8.05035 6.13042 7.56591 6.44669C7.1325 6.85795 6.85417 7.4071 6.77815 8.00095C6.59213 9.15292 6.51546 10.32 6.54915 11.4865C6.52025 12.6123 6.58767 13.7384 6.75067 14.8526C6.82805 15.4 7.10161 15.9003 7.5201 16.2597C8.0336 16.59 8.62397 16.7802 9.233 16.8115C10.0085 16.9035 11.3917 16.9494 13.3824 16.9494C15.8281 16.9494 17.4586 16.9494 18.2738 16.8299C18.8658 16.8225 19.4412 16.6332 19.9226 16.2873C20.2615 15.9286 20.4631 15.0917 20.4814 13.7765ZM51.8999 21.8973L50.0679 18.3382H36.2273L34.3953 21.8973H27.0674L38.1784 0.864255H48.0986L59.0905 21.8973H51.8999ZM47.8696 13.7306L43.83 5.76614H42.5568L38.5173 13.7306H47.8696ZM72.5006 9.96908H87.1015C87.1015 10.3094 87.1015 10.5025 87.1015 10.5393C87.1015 13.5068 87.0252 15.7416 86.8725 17.2437C86.8187 18.3485 86.3756 19.3981 85.6222 20.205C84.8688 21.012 83.8542 21.5238 82.7597 21.649C81.5507 21.8853 80.3261 22.0328 79.0957 22.0904C77.7034 22.1763 75.5875 22.2161 72.7479 22.21C70.1949 22.2547 67.6415 22.1564 65.0994 21.9157C63.8449 21.8009 62.6328 21.4015 61.5545 20.7477C60.9778 20.3556 60.5086 19.8243 60.1897 19.2027C59.8342 18.4174 59.6114 17.5782 59.5301 16.7195C59.3737 14.8354 59.3125 12.9446 59.3469 11.0543C59.3469 9.13216 59.4019 7.67906 59.5027 6.7042C59.5868 5.80825 59.787 4.92715 60.098 4.08314C60.4012 3.278 60.9234 2.57446 61.6051 2.05256C62.2869 1.53066 63.1008 1.21135 63.9544 1.13097C67.2344 0.674551 70.5457 0.483859 73.8563 0.560759C76.4943 0.560759 78.5797 0.625143 80.1125 0.753898C81.3955 0.845837 82.6661 1.06769 83.9047 1.41607C84.653 1.62151 85.3262 2.03993 85.8431 2.62086C86.3599 3.20179 86.6983 3.92041 86.8175 4.69011C87.0092 5.82316 87.0981 6.97134 87.0832 8.12052H80.6712C80.6815 7.71599 80.6446 7.31165 80.5613 6.91574C80.4941 6.70076 80.359 6.51357 80.1766 6.38234C79.4813 6.0432 78.7142 5.87904 77.9416 5.90409C76.8607 5.83971 75.3127 5.81211 73.27 5.81211C71.0625 5.81211 69.487 5.86731 68.5343 5.96847C67.849 5.98804 67.1803 6.1844 66.5924 6.53867C66.2015 6.9111 65.9521 7.40867 65.8871 7.94578C65.7377 9.05501 65.6765 10.1744 65.7039 11.2934C65.6769 12.5225 65.7381 13.7519 65.8871 14.9721C65.9411 15.5364 66.1907 16.0637 66.5924 16.462C66.9903 16.7561 67.4642 16.9285 67.9573 16.9586C68.516 17.0138 70.2747 17.069 73.2425 17.1058C76.2103 17.1425 77.9141 17.0598 78.537 17.023C79.0497 17.01 79.5571 16.9137 80.0392 16.7379C80.1853 16.6778 80.318 16.5891 80.4297 16.477C80.5413 16.3649 80.6297 16.2316 80.6896 16.0849C80.8394 15.6445 80.9047 15.1795 80.8819 14.7146C80.8819 14.6227 80.8819 14.4295 80.8819 14.1352H72.4823L72.5006 9.96908ZM89.6479 0.864255H112.85V5.81211H95.9225V8.84707H111.98V13.4455H95.9225V16.8207H112.96V21.8697H89.6296L89.6479 0.864255ZM11.4405 31.6275H14.6374C14.6374 32.1425 14.6374 32.4736 14.6374 32.6208C14.6715 33.2788 14.5457 33.9353 14.271 34.5337C14.1044 34.8129 13.8785 35.0517 13.6093 35.2329C13.3401 35.4142 13.0343 35.5334 12.7138 35.5821C11.3891 35.8098 10.0449 35.9022 8.70173 35.858C6.70486 35.858 5.27591 35.858 4.4332 35.7385C3.77048 35.7109 3.11847 35.5613 2.50962 35.297C2.1496 35.1181 1.8501 34.8366 1.64859 34.4877C1.43558 34.0507 1.31105 33.5755 1.2822 33.0898C1.2364 32.6115 1.20892 31.7471 1.20892 30.4963C1.20892 29.2455 1.20892 28.3902 1.2822 27.8568C1.30457 27.4255 1.3942 27.0003 1.54783 26.5968C1.71625 26.2445 1.9694 25.9397 2.28443 25.7101C2.59946 25.4806 2.96646 25.3333 3.35234 25.2817C5.13904 25.0289 6.94406 24.9304 8.74753 24.9874C10.1032 24.9874 11.0925 24.9874 11.7062 25.0794C12.2099 25.1185 12.7044 25.2364 13.1718 25.4289C13.6216 25.628 13.981 25.9889 14.1794 26.4405C14.404 27.0679 14.5036 27.7335 14.4725 28.3994C14.4725 28.4454 14.4725 28.6201 14.4725 28.9236H11.2757C11.2703 28.6894 11.2488 28.4559 11.2115 28.2247C11.1855 28.1108 11.1246 28.0079 11.0375 27.9304C10.7557 27.7781 10.4415 27.6961 10.1215 27.6913C9.62688 27.6453 8.87576 27.6177 7.86817 27.6177C6.86058 27.6177 6.17359 27.6177 5.78888 27.6821C5.49822 27.6959 5.21663 27.788 4.97365 27.9488C4.75538 28.1513 4.61579 28.4251 4.57976 28.7213C4.49143 29.2993 4.45465 29.8841 4.46985 30.4687C4.45331 31.0313 4.48396 31.5943 4.56145 32.1517C4.60186 32.4261 4.73824 32.6772 4.94617 32.8599C5.20572 33.0226 5.50173 33.1175 5.80719 33.1358C6.4986 33.1956 7.1926 33.2201 7.88649 33.2093C9.11392 33.2093 9.92916 33.2093 10.3322 33.145C10.631 33.1457 10.9225 33.0525 11.1657 32.8783C11.3957 32.5046 11.4926 32.0636 11.4405 31.6275ZM24.4202 25.0058C25.9792 24.9766 27.5386 25.0319 29.0917 25.1714C29.6047 25.185 30.0999 25.3628 30.5052 25.6787C30.9105 25.9947 31.2048 26.4324 31.3451 26.9279C31.7236 29.2454 31.7236 31.6093 31.3451 33.9267C31.2048 34.4223 30.9105 34.8599 30.5052 35.1759C30.0999 35.4919 29.6047 35.6696 29.0917 35.6833C27.5478 35.8225 25.9975 35.8778 24.4476 35.8488C22.8764 35.8782 21.3048 35.8229 19.7394 35.6833C19.2281 35.6677 18.7349 35.489 18.3314 35.1732C17.9279 34.8574 17.6351 34.4208 17.4953 33.9267C17.2555 32.7533 17.1571 31.5553 17.2021 30.3583C17.1596 29.2071 17.2581 28.0551 17.4953 26.9279C17.6351 26.4338 17.9279 25.9972 18.3314 25.6814C18.7349 25.3656 19.2281 25.187 19.7394 25.1714C21.2956 25.0317 22.8581 24.9764 24.4202 25.0058ZM24.4202 27.7649C23.3986 27.729 22.3758 27.7721 21.3607 27.8936C21.1812 27.9277 21.0141 28.0098 20.8771 28.1312C20.7401 28.2526 20.6382 28.4088 20.5821 28.5834C20.4222 29.2825 20.3606 30.0007 20.399 30.717C20.3813 31.1853 20.4151 31.6541 20.4997 32.1149C20.5584 32.3776 20.7049 32.6122 20.9149 32.7795C21.1249 32.9469 21.3857 33.0369 21.6539 33.0346C22.5676 33.1142 23.4849 33.1449 24.4018 33.1266C25.6934 33.1266 26.5453 33.1266 26.9758 33.0622C27.3026 33.0376 27.6178 32.93 27.8918 32.7495C28.0858 32.5875 28.2184 32.3635 28.2673 32.1149C28.347 31.6596 28.3807 31.1975 28.3681 30.7354C28.3792 30.1793 28.3517 29.6231 28.2856 29.0708C28.2642 28.7819 28.1696 28.5034 28.0108 28.2615C27.906 28.1407 27.7783 28.0419 27.6353 27.9709C27.4922 27.8998 27.3366 27.858 27.1773 27.8476C26.2605 27.7682 25.3403 27.7344 24.4202 27.7464V27.7649ZM34.4961 25.1806H39.992L45.488 33.0346H45.8177L45.7445 25.1806H48.9962V35.7109H43.4728L37.9768 27.8568H37.6288L37.702 35.7109H34.4503L34.4961 25.1806ZM52.1381 25.1806H57.744L63.2399 33.0346H63.5697L63.4964 25.1806H66.7481V35.7109H61.1881L55.6921 27.8568H55.344L55.4082 35.7109H52.1564L52.1381 25.1806ZM69.7892 25.1806H81.4132V27.6545H72.8761V29.172H80.9185V31.4895H72.8761V33.1818H81.4132V35.7109H69.7251L69.7892 25.1806ZM94.0264 31.6183H97.2232C97.2232 32.1333 97.2232 32.4644 97.2232 32.6116C97.2573 33.2696 97.1316 33.9261 96.8568 34.5245C96.6913 34.8045 96.4656 35.044 96.1962 35.2253C95.9268 35.4067 95.6205 35.5255 95.2996 35.5729C93.975 35.8006 92.6308 35.893 91.2876 35.8488C89.2907 35.8488 87.8618 35.8488 87.0191 35.7293C86.3563 35.7017 85.7043 35.552 85.0955 35.2878C84.7354 35.1089 84.4359 34.8274 84.2344 34.4785C84.0214 34.0414 83.8969 33.5663 83.868 33.0806C83.8222 32.6024 83.7948 31.7379 83.7948 30.4871C83.7948 29.2363 83.7948 28.381 83.868 27.8476C83.8904 27.4163 83.9801 26.9911 84.1337 26.5877C84.2982 26.244 84.5434 25.9456 84.8481 25.7181C85.1529 25.4907 85.5081 25.3409 85.8832 25.2817C87.6699 25.0289 89.4749 24.9304 91.2784 24.9874C92.6341 24.9874 93.6234 24.9874 94.2371 25.0794C94.7408 25.1185 95.2353 25.2364 95.7027 25.4289C96.1525 25.628 96.5119 25.9889 96.7103 26.4405C96.9349 27.0679 97.0345 27.7335 97.0034 28.3994C97.0034 28.4454 97.0034 28.6201 97.0034 28.9236H93.8066C93.8012 28.6894 93.7797 28.4559 93.7424 28.2247C93.7164 28.1108 93.6555 28.0079 93.5684 27.9304C93.2866 27.7781 92.9724 27.6961 92.6524 27.6913C92.1578 27.6453 91.4067 27.6177 90.3991 27.6177C89.3915 27.6177 88.7045 27.6177 88.3198 27.6821C88.0291 27.6959 87.7475 27.788 87.5045 27.9488C87.2863 28.1513 87.1467 28.4251 87.1107 28.7213C87.0223 29.2993 86.9856 29.8841 87.0007 30.4687C86.9842 31.0313 87.0149 31.5943 87.0924 32.1517C87.1328 32.4261 87.2691 32.6772 87.4771 32.8599C87.7366 33.0226 88.0326 33.1175 88.3381 33.1358C89.0295 33.1954 89.7235 33.2199 90.4174 33.2093C91.6448 33.2093 92.4601 33.2093 92.8631 33.145C93.1619 33.1457 93.4534 33.0525 93.6966 32.8783C93.9234 32.5035 94.0171 32.0626 93.9623 31.6275L94.0264 31.6183ZM99.2018 25.1806H111.907V27.866H107.235V35.7109H103.873V27.866H99.2018V25.1806Z" fill="white"/>
</mask>
<g mask="url(#mask0_117_2505)">
<path d="M90.6921 24.1597C90.7236 24.4699 90.8169 24.7706 90.9663 25.0439C91.1158 25.3172 91.3185 25.5576 91.5623 25.7507C91.7822 25.2817 91.141 24.3068 90.6921 24.1597Z" fill="black"/>
<path d="M12.384 19.2303C12.149 18.3436 11.6808 17.5367 11.0283 16.8943C11.1382 17.0782 12.0909 19.3314 12.384 19.2303Z" fill="black"/>
<path d="M78.4637 18.5497C78.2805 18.7612 78.8942 19.9292 79.2056 19.4694C79.114 19.267 78.8392 18.0898 78.4637 18.5497Z" fill="black"/>
<path d="M70.8426 34.3497C70.5129 34.6808 70.9617 35.6557 71.5205 35.2694C71.5022 35.1867 71.209 33.9635 70.8426 34.3497Z" fill="black"/>
<path d="M72.1615 34.2761C71.8867 33.5404 72.1615 33.3565 71.3555 33.1082C71.1356 33.7243 72.0516 33.9726 72.1615 34.2761Z" fill="black"/>
<path d="M76.7049 22.0444C76.7049 22.2927 76.6133 22.7802 76.824 22.9641C76.8698 23.0101 77.3094 23.3228 77.3186 22.9641C77.2955 22.7732 77.2279 22.5904 77.1213 22.4306C77.0147 22.2708 76.872 22.1385 76.7049 22.0444Z" fill="black"/>
<path d="M84.0878 32.9335C83.9321 33.0899 84.9213 34.9108 85.2511 34.9016C85.1595 34.7729 84.1977 32.8048 84.0878 32.9335Z" fill="black"/>
<path d="M22.011 11.2291C22.0873 11.881 22.3926 12.4843 22.872 12.9305C23.1377 12.6914 22.3041 11.3763 22.011 11.2291Z" fill="black"/>
<path d="M11.3214 1.44373C11.0008 1.76561 12.3015 3.05317 12.3473 2.98879C12.0965 2.41832 11.7494 1.89562 11.3214 1.44373Z" fill="black"/>
<path d="M75.1569 25.8428C75.0012 26.0359 74.9188 27.0292 75.4226 26.7625C75.9264 26.4957 75.276 25.9255 75.1569 25.8428Z" fill="black"/>
<path d="M24.8689 14.0707C24.8689 13.85 24.0262 12.1578 23.8339 12.305C24.0381 12.9661 24.3924 13.5705 24.8689 14.0707Z" fill="black"/>
<path d="M86.6435 28.6936C86.5427 28.9787 87.303 29.6133 87.303 29.2271C87.303 28.8408 86.8175 28.1786 86.6435 28.6936Z" fill="black"/>
<path d="M77.3003 20.9316C77.3003 21.0696 77.2087 21.9157 77.6392 21.7778C78.0697 21.6398 77.6026 20.9776 77.3003 20.9316Z" fill="black"/>
<path d="M92.1302 13.1421C91.9012 13.2616 92.5973 14.3193 92.7347 14.1721C92.7073 14.0434 92.5699 12.9121 92.1302 13.1421Z" fill="black"/>
<path d="M12.4389 3.33826C12.0725 3.75211 13.2908 4.55221 13.1992 4.69016C13.3274 4.43265 12.6954 3.43942 12.4389 3.33826Z" fill="black"/>
<path d="M22.9362 12.8754C22.6614 13.1237 23.6049 14.2457 23.7789 14.3928C23.6681 13.8091 23.3725 13.2769 22.9362 12.8754Z" fill="black"/>
<path d="M49.7014 3.60488C49.793 3.48532 49.3808 2.83236 49.1885 2.75879C49.2709 2.93353 49.2434 4.22106 49.7014 3.60488Z" fill="black"/>
<path d="M74.708 27.121C74.5248 27.3233 74.4424 28.0407 74.8912 28.0407C75.166 28.0407 74.882 27.2589 74.708 27.121Z" fill="black"/>
<path d="M86.3961 29.9261C86.3961 29.733 86.1122 28.9329 85.8282 29.218C85.5442 29.5031 86.2129 30.2664 86.3961 29.9261Z" fill="black"/>
<path d="M33.012 1.24121C32.8471 1.62748 33.3601 2.44599 33.7082 2.61154C33.8547 2.28965 33.2227 1.45274 33.012 1.24121Z" fill="black"/>
<path d="M82.3566 25.2817C82.1368 25.5025 82.3566 26.3486 82.7963 26.2014C83.0436 26.1186 82.4024 25.2817 82.3566 25.2817Z" fill="black"/>
<path d="M14.7838 0.45044C14.8571 0.367669 14.2526 -0.404861 14.106 -0.469238C13.7305 -0.230122 14.6922 0.588392 14.7838 0.45044Z" fill="black"/>
<path d="M89.0525 27.8567C88.9976 27.7279 88.7594 26.8543 88.4754 27.0474C88.1915 27.2405 88.8693 28.3165 89.0525 27.8567Z" fill="black"/>
<path d="M18.2463 11.4131C18.2474 11.1868 18.1907 10.964 18.0816 10.766C17.9726 10.5679 17.8148 10.4013 17.6234 10.2819C17.7643 10.6923 17.975 11.075 18.2463 11.4131Z" fill="black"/>
<path d="M7.01626 0.275664C6.99171 0.113718 6.92904 -0.0400099 6.83346 -0.172766C6.73787 -0.305523 6.61212 -0.413481 6.46666 -0.487671C6.30178 -0.14739 6.90634 0.579158 7.01626 0.275664Z" fill="black"/>
<path d="M73.1234 31.1401C73.1234 30.8733 72.8486 30.5699 72.7295 31.0021C72.6104 31.4344 73.1234 31.8758 73.1234 31.1401Z" fill="black"/>
<path d="M84.8755 29.7789C84.7704 29.2825 84.5028 28.8357 84.1152 28.5098C84.3351 28.9604 84.4541 29.5674 84.8755 29.7789Z" fill="black"/>
<path d="M32.3251 6.94344C32.6457 6.65834 32.0045 6.14333 31.8396 5.9502C31.748 6.29048 31.8671 6.88825 32.3251 6.94344Z" fill="black"/>
<path d="M102.976 18.6324C102.976 18.4485 102.911 17.8231 102.545 18.053C102.325 18.191 102.802 18.9359 102.976 18.6324Z" fill="black"/>
<path d="M87.7426 27.8108C87.4587 28.1143 87.9625 28.7305 88.0724 28.5741C88.1823 28.4178 87.9075 27.912 87.7426 27.8108Z" fill="black"/>
<path d="M10.4146 15.6895C10.5163 16.136 10.7273 16.55 11.0283 16.8942C11.2847 16.4988 10.6802 15.9838 10.4146 15.6895Z" fill="black"/>
<path d="M14.3441 8.93909C14.3958 9.43001 14.6199 9.88643 14.9762 10.2266C14.9621 9.98044 14.899 9.73959 14.7904 9.5184C14.6818 9.29722 14.53 9.1002 14.3441 8.93909Z" fill="black"/>
<path d="M61.4445 1.79309C61.5091 2.25522 61.7405 2.67741 62.0948 2.97947C62.2597 2.6208 61.7193 1.99542 61.4445 1.79309Z" fill="black"/>
<path d="M39.4332 12.8753C39.4687 13.0667 39.5453 13.2482 39.6576 13.407C39.7699 13.5658 39.9152 13.6982 40.0836 13.7949C40.0836 13.7306 39.6256 12.4614 39.4332 12.8753Z" fill="black"/>
<path d="M11.8711 15.8275C11.6421 15.9103 12.1733 17.0415 12.3749 16.7472C12.3382 16.6368 12.0726 15.7631 11.8711 15.8275Z" fill="black"/>
<path d="M85.6816 31.0573C85.5631 30.6509 85.3495 30.2789 85.0588 29.9721C85.0588 29.9261 85.0588 29.8801 84.9855 29.825C84.9948 29.8921 84.9948 29.9602 84.9855 30.0273H85.0313C84.8115 30.3032 85.4526 30.9378 85.6816 31.0573Z" fill="black"/>
<path d="M14.4266 7.09973C14.7655 6.88821 14.1335 6.3272 14.0052 6.18005C14.0052 6.23523 14.1976 7.23768 14.4266 7.09973Z" fill="black"/>
<path d="M79.9658 21.042C79.9331 21.07 79.9078 21.1056 79.8918 21.1456C79.8758 21.1857 79.8698 21.229 79.8742 21.2719C79.8742 21.3915 80.0482 21.9985 80.2772 21.7593C80.5062 21.5202 79.9566 21.0512 79.9658 21.042Z" fill="black"/>
<path d="M95.0156 16.085C95.1988 15.6895 94.8415 15.4504 94.5851 15.1653C94.5706 15.343 94.6027 15.5214 94.6782 15.6827C94.7538 15.8441 94.8701 15.9828 95.0156 16.085Z" fill="black"/>
<path d="M76.311 23.6171C76.311 23.6998 76.311 24.6563 76.7141 24.3804C76.9614 24.2056 76.4576 23.6722 76.311 23.6171Z" fill="black"/>
<path d="M94.3561 23.6447C94.3561 23.2769 93.8615 23.1481 93.9714 23.4332C94.0813 23.7183 94.2828 24.0954 94.3561 23.6447Z" fill="black"/>
<path d="M80.7994 15.5146C80.8635 15.3122 80.8452 15.2938 80.6711 15.2386C80.3047 15.0915 80.5612 15.5697 80.552 15.6433C80.4971 16.0847 80.9184 16.0848 80.7994 15.5146Z" fill="black"/>
<path d="M13.4922 5.16821C13.4373 5.43492 13.7029 6.15228 14.0143 6.15228C13.9589 5.77351 13.7744 5.42575 13.4922 5.16821Z" fill="black"/>
<path d="M93.1195 23.9206C93.1195 23.9206 93.1195 24.0402 93.1195 24.0586C93.3668 25.3829 93.6599 23.5987 93.1195 23.9206Z" fill="black"/>
<path d="M72.5096 32.9152C72.7661 32.6669 72.4364 32.4093 72.2532 32.4001C72.3356 32.4001 71.8959 33.1543 72.5096 32.9152Z" fill="black"/>
<path d="M36.9875 21.8052C36.9417 21.7041 36.7494 20.9683 36.5387 21.0603C36.328 21.1523 36.7952 22.1087 36.9875 21.8052Z" fill="black"/>
<path d="M27.3513 13.9881C27.3513 13.8685 26.8841 12.7741 26.7467 12.9396C26.6093 13.1052 27.2414 13.9329 27.3513 13.9881Z" fill="black"/>
<path d="M22.8721 14.9998C22.9454 14.6687 22.6339 14.3468 22.3591 14.1904C22.3622 14.3597 22.4117 14.5248 22.5022 14.6676C22.5927 14.8104 22.7207 14.9253 22.8721 14.9998Z" fill="black"/>
<path d="M11.0741 0.983881C11.0947 0.822224 11.062 0.658225 10.981 0.517025C10.8999 0.375825 10.7749 0.265211 10.6252 0.202148C10.6802 0.450462 10.8084 0.882716 11.0741 0.983881Z" fill="black"/>
<path d="M96.2064 11.2934C96.2064 11.1922 96.1239 10.576 95.8308 10.7692C95.5377 10.9623 95.9957 11.3302 96.2064 11.2934Z" fill="black"/>
<path d="M74.3141 28.9605C74.7354 28.8501 73.9843 28.5374 74.0027 28.5466C73.9477 28.7305 74.0027 29.1352 74.2683 29.1352C74.2942 29.1153 74.3128 29.0874 74.321 29.0557C74.3293 29.0241 74.3269 28.9905 74.3141 28.9605Z" fill="black"/>
<path d="M21.4614 12.7281C21.5678 12.9928 21.734 13.2289 21.9469 13.4179C22.1759 13.1236 21.8645 12.8385 21.4614 12.7281Z" fill="black"/>
<path d="M39.3874 23.847C39.3874 23.4791 38.8561 23.2768 38.9294 23.424C38.9294 23.4423 39.305 24.0401 39.3874 23.847Z" fill="black"/>
<path d="M79.5812 33.9819C79.5812 34.0279 79.9567 34.9844 80.0758 34.8373C80.1949 34.6901 79.7461 34.0647 79.5812 33.9819Z" fill="black"/>
<path d="M65.145 6.05113C65.145 5.92238 64.7786 5.27862 64.5771 5.43496C64.3756 5.59131 65.0351 6.08792 65.145 6.05113Z" fill="black"/>
<path d="M83.7947 32.3264C83.7947 32.2068 83.6481 31.6458 83.4466 31.6274C83.2451 31.609 83.6847 32.6391 83.7947 32.3264Z" fill="black"/>
<path d="M3.92935 19.9567C3.88925 20.1034 3.90221 20.2597 3.96593 20.3977C4.02964 20.5357 4.13999 20.6467 4.27742 20.7108C4.29376 20.5652 4.26995 20.4178 4.20857 20.2848C4.14718 20.1518 4.0506 20.0383 3.92935 19.9567Z" fill="black"/>
<path d="M33.0212 5.9685C32.838 6.12484 33.2869 6.58468 33.4426 6.62146C33.4426 6.60307 33.3052 5.70179 33.0212 5.9685Z" fill="black"/>
<path d="M96.5544 20.9132C96.472 21.2443 96.7193 21.4466 96.9392 21.6857C96.9532 21.5338 96.9245 21.3809 96.8565 21.2444C96.7886 21.1079 96.6839 20.9932 96.5544 20.9132Z" fill="black"/>
<path d="M31.748 7.92729C31.748 7.66059 31.5373 7.51342 31.3816 7.33869C31.2259 7.16395 31.6656 8.28597 31.748 7.92729Z" fill="black"/>
<path d="M33.2137 10.5669C33.2137 10.4473 32.8931 9.94147 32.7465 10.0794C32.5999 10.2174 33.0946 10.6128 33.2137 10.5669Z" fill="black"/>
<path d="M92.1027 24.4263C91.9928 24.5366 92.3134 25.0792 92.3684 25.0148C92.6065 24.7481 92.3409 24.6746 92.1027 24.4263Z" fill="black"/>
<path d="M19.9134 12.1119C19.9684 11.8636 19.6844 11.5877 19.5562 11.3945C19.5338 11.5366 19.5562 11.6821 19.6203 11.8107C19.6843 11.9393 19.7868 12.0446 19.9134 12.1119Z" fill="black"/>
<path d="M81.349 23.3137C81.349 23.3137 80.9826 22.7803 80.8635 23.1114C80.7445 23.4425 81.2574 23.3505 81.349 23.3137Z" fill="black"/>
<path d="M11.5962 22.1824C11.5229 22.1824 11.6878 22.7802 11.9168 22.8353C11.9535 22.7066 11.871 22.2468 11.5962 22.1824Z" fill="black"/>
<path d="M86.8266 33.1359C87.0007 32.9979 86.5702 32.4645 86.4053 32.4093C86.4129 32.5553 86.4551 32.6974 86.5284 32.8238C86.6017 32.9501 86.7039 33.0571 86.8266 33.1359Z" fill="black"/>
<path d="M32.7922 0.919376C32.749 0.637301 32.6175 0.376371 32.4166 0.174438C32.4991 0.303193 32.4899 0.753834 32.7922 0.919376Z" fill="black"/>
<path d="M26.7742 6.04194C26.8383 5.72006 26.8749 5.83043 26.4811 5.56372C26.3528 5.75685 26.591 5.96837 26.7742 6.04194Z" fill="black"/>
<path d="M30.6122 6.18912C30.4381 6.35466 30.887 6.65816 30.9603 6.67655C31.0335 6.69494 30.832 5.9684 30.6122 6.18912Z" fill="black"/>
<path d="M95.4827 12.4061C95.3178 12.5716 95.785 13.0131 95.8675 13.0591C95.9499 13.105 95.6476 12.1854 95.4827 12.4061Z" fill="black"/>
<path d="M61.0598 1.10327L61.4903 1.78382C61.3924 1.53093 61.2462 1.29974 61.0598 1.10327Z" fill="black"/>
<path d="M25.6475 13.0776C25.6017 12.9305 25.4735 12.581 25.2354 12.5166C25.272 12.5258 25.3361 13.0408 25.6475 13.0776Z" fill="black"/>
<path d="M12.1457 11.9647C12.1344 12.0753 12.1596 12.1866 12.2175 12.2814C12.2755 12.3762 12.3629 12.4491 12.4663 12.4889C12.5671 12.1855 12.4389 12.0475 12.1457 11.9647Z" fill="black"/>
<path d="M0.869917 7.80786C0.862378 7.93448 0.892263 8.06052 0.95582 8.17014C1.01938 8.27977 1.11377 8.36811 1.22715 8.42406C1.21146 8.30265 1.17178 8.18558 1.11043 8.07977C1.04909 7.97396 0.967315 7.88152 0.869917 7.80786Z" fill="black"/>
<path d="M35.412 5.37082C35.1189 5.30644 35.6227 5.9962 35.5861 5.96861C35.5494 5.94102 35.6318 5.426 35.412 5.37082Z" fill="black"/>
<path d="M70.4669 35.9316C70.3662 35.9868 70.4669 36.695 70.7967 36.4559C70.8608 36.6214 70.5952 35.8581 70.4669 35.9316Z" fill="black"/>
<path d="M85.9838 36.3178C85.9741 36.1669 85.9323 36.0199 85.8612 35.8867C85.7901 35.7534 85.6914 35.637 85.5717 35.5453C85.5783 35.6968 85.6187 35.845 85.6901 35.9787C85.7614 36.1124 85.8618 36.2283 85.9838 36.3178Z" fill="black"/>
<path d="M14.4633 31.8575C14.3168 31.9863 14.5274 32.4278 14.7198 32.3266C14.9122 32.2254 14.5366 31.8667 14.4633 31.8575Z" fill="black"/>
<path d="M71.3005 8.01928C71.4929 7.84454 71.0166 7.42147 70.8975 7.3479C70.8608 7.65139 71.1356 7.80775 71.3005 8.01928Z" fill="black"/>
<path d="M16.6159 1.74712C16.909 1.8115 16.5426 1.38844 16.451 1.27808C16.4281 1.31914 16.4142 1.36465 16.4101 1.41155C16.4061 1.45844 16.4121 1.50567 16.4277 1.55005C16.4433 1.59444 16.4682 1.63497 16.5006 1.66896C16.5331 1.70294 16.5723 1.72959 16.6159 1.74712Z" fill="black"/>
<path d="M69.9357 30.1468C69.9357 30.0365 69.6151 29.8157 69.5419 29.7513C69.5327 29.8801 69.7983 30.4043 69.9357 30.1468Z" fill="black"/>
<path d="M97.5529 20.4993C97.5529 20.4993 97.5529 21.1522 97.8918 20.8763C97.8226 20.717 97.7036 20.5847 97.5529 20.4993Z" fill="black"/>
<path d="M6.72314 20.389C6.72314 20.4442 6.87887 21.1708 7.03459 21.088C7.19031 21.0052 6.81474 20.4442 6.72314 20.389Z" fill="black"/>
<path d="M12.2373 9.73926C12.0725 9.84042 12.2831 10.3003 12.3931 10.2359C12.503 10.1715 12.3473 9.78524 12.2373 9.73926Z" fill="black"/>
<path d="M31.748 17.2437C31.7553 17.3446 31.7865 17.4424 31.8391 17.5288C31.8917 17.6152 31.9641 17.6877 32.0503 17.7403C32.0584 17.6361 32.0335 17.532 31.9792 17.4428C31.925 17.3537 31.8441 17.284 31.748 17.2437Z" fill="black"/>
<path d="M22.3683 14.1813C22.3178 13.8864 22.1693 13.6173 21.947 13.418C21.9415 13.5716 21.9778 13.7239 22.052 13.8584C22.1263 13.9929 22.2356 14.1045 22.3683 14.1813Z" fill="black"/>
<path d="M104.899 15.3584C104.882 15.4055 104.876 15.4557 104.881 15.5054C104.886 15.5552 104.901 15.6033 104.927 15.6463C104.952 15.6894 104.986 15.7262 105.028 15.7544C105.069 15.7825 105.116 15.8012 105.165 15.8091C105.211 15.6159 105.165 15.386 104.899 15.3584Z" fill="black"/>
<path d="M94.1728 14.5676C93.9988 14.6871 94.4018 15.1378 94.5942 15.1194C94.5301 14.9906 94.3011 14.4848 94.1728 14.5676Z" fill="black"/>
<path d="M32.948 14.8525C33.2045 14.8525 32.8381 14.457 32.7923 14.3834C32.664 14.4846 32.7831 14.8341 32.948 14.8525Z" fill="black"/>
<path d="M53.4387 35.1223C53.3105 35.4258 53.512 35.6097 53.7593 35.7477C53.7392 35.5048 53.6239 35.2799 53.4387 35.1223Z" fill="black"/>
<path d="M36.6486 5.43494C36.5662 5.51771 36.7219 5.99592 36.8685 5.93154C37.015 5.86717 36.7219 5.46253 36.6486 5.43494Z" fill="black"/>
<path d="M17.8341 12.8661C17.8983 12.8201 17.6143 12.4522 17.5593 12.4338C17.4311 12.5718 17.7425 12.9489 17.8341 12.8661Z" fill="black"/>
<path d="M68.2227 4.84651C68.0395 5.03965 68.4975 5.37991 68.6533 5.37991C68.6441 5.37072 68.3143 4.75455 68.2227 4.84651Z" fill="black"/>
<path d="M30.0992 7.43994C30.0992 7.43994 30.0992 7.36637 30.0168 7.32038C29.9344 7.2744 29.971 7.43995 30.0168 7.47674C30.0316 7.4824 30.0479 7.4824 30.0626 7.47674C29.971 7.60549 30.1634 7.91817 30.3282 7.94576C30.4931 7.97335 30.0718 7.45833 30.0809 7.45833C30.0901 7.45833 30.0992 7.43075 30.0992 7.43994Z" fill="black"/>
<path d="M94.5576 19.6073C94.4843 19.6809 94.5576 20.0672 94.695 20.0304C94.8324 19.9936 94.6584 19.6349 94.5576 19.6073Z" fill="black"/>
<path d="M100.869 19.635C100.846 19.4376 100.783 19.2468 100.686 19.074C100.557 19.3683 100.631 19.4234 100.869 19.635Z" fill="black"/>
<path d="M72.2257 11.9371C72.2088 11.9921 72.2031 12.0499 72.2088 12.107C72.2145 12.1642 72.2314 12.2197 72.2587 12.2703C72.286 12.3208 72.3231 12.3653 72.3677 12.4013C72.4124 12.4373 72.4638 12.4639 72.5188 12.4797C72.5306 12.3701 72.5089 12.2595 72.4566 12.1625C72.4042 12.0656 72.3237 11.987 72.2257 11.9371Z" fill="black"/>
<path d="M12.5122 5.58216C12.5122 5.41662 12.4481 5.29706 12.2557 5.26947C12.0634 5.24188 12.3473 5.84886 12.5122 5.58216Z" fill="black"/>
<path d="M53.9975 34.0463C54.0616 33.9176 53.9975 33.6416 53.8784 33.5773C53.7319 33.6968 53.8509 33.9635 53.9975 34.0463Z" fill="black"/>
<path d="M18.3654 13.85C18.3697 13.7357 18.3373 13.6231 18.273 13.5287C18.2086 13.4343 18.1158 13.3632 18.0082 13.3258C17.9955 13.4416 18.0245 13.5582 18.0901 13.6544C18.1556 13.7505 18.2533 13.8199 18.3654 13.85Z" fill="black"/>
<path d="M82.5489 32.446C82.6772 32.2804 82.4665 31.9217 82.3199 32.1609C82.3199 32.1609 82.4573 32.5563 82.5489 32.446Z" fill="black"/>
<path d="M45.5612 12.1486C45.5612 12.1486 45.7169 12.8384 45.8176 12.4981C45.8268 12.3417 45.5612 12.1026 45.5612 12.1486Z" fill="black"/>
<path d="M31.4275 14.3007C31.4275 14.126 31.2626 13.9329 31.1343 13.8501C30.9511 14.0064 31.4183 14.3467 31.4275 14.3007Z" fill="black"/>
<path d="M56.6446 25.0151C56.6996 24.8403 56.4706 24.3897 56.3973 24.6748C56.3928 24.7515 56.415 24.8274 56.4601 24.8895C56.5052 24.9516 56.5705 24.996 56.6446 25.0151Z" fill="black"/>
<path d="M22.6339 19.1659C22.469 19.267 22.8446 19.6257 22.9087 19.6349C22.9728 19.6441 22.872 19.0187 22.6339 19.1659Z" fill="black"/>
<path d="M53.1181 16.7103C52.9532 16.8575 53.2463 17.0966 53.3929 16.9219C53.3471 16.7563 53.2555 16.6919 53.1181 16.7103Z" fill="black"/>
<path d="M96.6094 16.3148C96.603 16.2887 96.5915 16.2641 96.5755 16.2426C96.5596 16.221 96.5395 16.2028 96.5165 16.1891C96.4935 16.1754 96.468 16.1665 96.4415 16.1628C96.4149 16.1591 96.388 16.1608 96.3621 16.1676C96.2522 16.2964 96.4812 16.5539 96.6094 16.3148Z" fill="black"/>
<path d="M52.4403 15.3951C52.4403 15.5055 52.5044 15.763 52.6785 15.763C52.8525 15.763 52.5594 15.5055 52.4403 15.3951Z" fill="black"/>
<path d="M105.943 14.9629C105.778 14.9629 106.108 15.5239 106.209 15.248C106.195 15.1807 106.163 15.1185 106.116 15.0683C106.069 15.018 106.009 14.9815 105.943 14.9629Z" fill="black"/>
<path d="M43.2803 14.8985C43.3994 14.8065 43.0421 14.4479 43.0055 14.4019C42.9689 14.3559 43.0421 15.0824 43.2803 14.8985Z" fill="black"/>
<path d="M81.3307 14.6227C81.3307 14.825 81.7063 14.4388 81.3307 14.3192C80.9552 14.1997 81.3307 14.5951 81.3307 14.6227Z" fill="black"/>
<path d="M87.9167 34.7635C87.7793 34.8739 87.761 35.251 87.9808 35.0854C88.2006 34.9199 88.0541 34.8647 87.9167 34.7635Z" fill="black"/>
<path d="M25.8856 13.5374C25.9589 13.3535 25.8765 13.2063 25.6383 13.0959C25.6383 13.0959 25.6383 13.6937 25.8856 13.5374Z" fill="black"/>
<path d="M44.7185 13.2523C44.7093 13.2937 44.7112 13.3369 44.7241 13.3773C44.737 13.4177 44.7603 13.4539 44.7918 13.4823C45.0574 13.2707 44.7918 12.9121 44.7185 13.2523Z" fill="black"/>
<path d="M36.1264 11.2933C35.9524 11.5692 36.1814 11.6152 36.3737 11.4957L36.1264 11.2933Z" fill="black"/>
<path d="M39.6163 8.32294C39.6057 8.25954 39.5733 8.20188 39.5248 8.1599C39.4763 8.11792 39.4147 8.09426 39.3507 8.09302C39.3416 8.24936 39.4606 8.51607 39.6163 8.32294Z" fill="black"/>
<path d="M81.8528 28.8591C81.807 28.9327 81.6422 29.2454 81.8528 29.2454C82.0635 29.2454 81.8254 28.8132 81.8528 28.8591Z" fill="black"/>
<path d="M5.63312 4.89248C5.4774 4.82811 5.56899 5.1408 5.57815 5.18679C5.58731 5.23277 5.86212 4.96606 5.63312 4.89248Z" fill="black"/>
<path d="M5.4133 2.17015C5.4133 1.94023 5.30338 1.82068 5.12934 1.84827C4.95531 1.87586 5.31254 2.47364 5.4133 2.17015Z" fill="black"/>
<path d="M20.7561 26.8452C20.6737 26.606 20.5729 26.5416 20.4355 26.652C20.4813 26.7532 20.6462 27.1211 20.7561 26.8452Z" fill="black"/>
<path d="M90.6005 26.3209C90.7379 26.3761 90.3899 25.8887 90.3532 25.8335C90.337 25.9306 90.3523 26.0304 90.3968 26.1181C90.4413 26.2059 90.5127 26.277 90.6005 26.3209Z" fill="black"/>
<path d="M29.9161 16.3241C29.9161 16.3241 29.8061 15.6711 29.6229 15.8826C29.4397 16.0942 29.6962 16.2229 29.9161 16.3241Z" fill="black"/>
<path d="M12.8877 17.6668C12.9427 17.492 12.8877 17.3817 12.5763 17.3173C12.5671 17.3081 12.8236 17.7587 12.8877 17.6668Z" fill="black"/>
<path d="M72.9127 17.584C72.9127 17.7587 72.9952 17.9794 73.2058 17.9978C73.1561 17.8313 73.0531 17.6858 72.9127 17.584Z" fill="black"/>
<path d="M79.3796 17.7128C79.3796 17.8691 79.4987 18.191 79.5445 18.0347C79.5903 17.8783 79.627 17.6484 79.3796 17.7128Z" fill="black"/>
<path d="M34.2121 19.3038C34.2121 19.129 34.2121 18.9359 33.9556 18.9083C33.9098 19.0923 33.9922 19.221 34.2121 19.3038Z" fill="black"/>
<path d="M7.66656 19.8372C7.66656 19.7085 7.58412 19.497 7.43756 19.4694C7.25436 19.6809 7.66656 19.874 7.66656 19.8372Z" fill="black"/>
<path d="M54.6479 21.5202C54.5471 21.6305 54.5746 21.7409 54.7303 21.8329C54.9135 21.7225 54.6479 21.511 54.6479 21.5202Z" fill="black"/>
<path d="M94.8141 22.4306C94.7225 22.587 94.8141 22.7342 94.9698 22.8721C95.098 22.7617 94.9515 22.3203 94.8141 22.4306Z" fill="black"/>
<path d="M90.4356 23.746C90.4554 23.6716 90.4454 23.5924 90.4077 23.5254C90.37 23.4583 90.3077 23.4087 90.2341 23.3873C90.1883 23.2034 90.3715 24.0495 90.4356 23.746Z" fill="black"/>
<path d="M80.2406 35.1406C80.2406 35.1406 80.2406 35.5361 80.4055 35.4717C80.5704 35.4073 80.2956 35.1498 80.2406 35.1406Z" fill="black"/>
<path d="M82.5673 11.9005C82.3475 11.7717 82.4848 12.204 82.494 12.2407C82.6406 12.1212 82.6589 12.0016 82.5673 11.9005Z" fill="black"/>
<path d="M80.7079 33.6139C80.5338 33.7058 80.8178 34.0093 80.8727 34.0645C80.8636 33.9174 80.8361 33.5587 80.7079 33.6139Z" fill="black"/>
<path d="M72.9677 13.2614C73.0226 13.3534 73.1509 13.5833 73.2883 13.6201C73.2699 13.4454 73.1508 13.2155 72.9677 13.2614Z" fill="black"/>
<path d="M12.045 32.1516C12.045 32.1516 12.1 32.6758 12.2924 32.6207C12.4847 32.5655 12.155 32.17 12.045 32.1516Z" fill="black"/>
<path d="M54.3089 32.1057C54.3148 32.0432 54.3001 31.9806 54.267 31.9273C54.2339 31.8741 54.1842 31.8334 54.1256 31.8114C54.0982 31.9218 54.1806 32.3908 54.3089 32.1057Z" fill="black"/>
<path d="M28.5786 13.988C28.5646 14.0262 28.5651 14.0683 28.5801 14.1061C28.595 14.144 28.6234 14.175 28.6596 14.1932C28.6959 14.2114 28.7376 14.2156 28.7767 14.2049C28.8158 14.1941 28.8497 14.1693 28.8717 14.1352C28.7801 13.9328 28.6885 13.8776 28.5786 13.988Z" fill="black"/>
<path d="M49.3716 0.597645L49.2068 0.386108C48.9778 0.579241 49.1518 0.744793 49.3716 0.597645Z" fill="black"/>
<path d="M26.4352 14.3836C26.4352 14.172 26.2978 14.0801 26.1421 14.1077C25.9864 14.1353 26.252 14.6595 26.4352 14.3836Z" fill="black"/>
<path d="M57.8813 27.0658L57.7164 26.7991C57.6889 26.7347 57.6157 27.3785 57.8813 27.0658Z" fill="black"/>
<path d="M36.6853 14.4111L36.4288 14.1628C36.328 14.3284 36.5479 14.6319 36.6853 14.4111Z" fill="black"/>
<path d="M42.5109 15.8275C42.6208 15.7079 42.5841 15.6067 42.4101 15.5148C42.1994 15.6251 42.2361 15.7263 42.5109 15.8275Z" fill="black"/>
<path d="M46.1382 1.793C46.2023 1.52629 45.9459 1.65505 45.8359 1.71943C45.9367 1.83898 46.0375 1.86658 46.1382 1.793Z" fill="black"/>
<path d="M109.736 5.96843C109.736 6.13397 109.846 6.23513 109.983 6.16156C109.94 5.90405 109.858 5.83968 109.736 5.96843Z" fill="black"/>
<path d="M66.5007 8.58972C66.5343 8.54281 66.5523 8.4865 66.5523 8.42875C66.5523 8.37101 66.5343 8.31473 66.5007 8.26782C66.3542 8.3414 66.3908 8.6449 66.5007 8.58972Z" fill="black"/>
<path d="M15.4983 8.87472C15.4433 9.028 15.5166 9.16593 15.7181 9.28856C15.7181 9.22418 15.7547 8.77355 15.4983 8.87472Z" fill="black"/>
<path d="M96.6003 12.0659C96.7011 11.9372 96.6736 11.8176 96.5179 11.7164C96.3988 11.8544 96.4263 11.9739 96.6003 12.0659Z" fill="black"/>
<path d="M81.9168 13.3258C81.9573 13.3015 81.9901 13.266 82.0112 13.2237C82.0323 13.1813 82.0409 13.1337 82.0359 13.0866C81.7703 12.8291 81.7794 13.1786 81.9168 13.3258Z" fill="black"/>
<path d="M30.0992 14.172C30.1542 14.3008 30.0351 14.4203 30.2458 14.4939C30.3099 14.3467 30.2641 14.2456 30.0992 14.172Z" fill="black"/>
<path d="M107.098 14.5214L106.878 14.3099C106.768 14.5399 106.859 14.687 107.098 14.5214Z" fill="black"/>
<path d="M108.939 15.8183C109.03 15.7079 109.003 15.6159 108.847 15.5424C108.832 15.5657 108.822 15.5923 108.818 15.6201C108.814 15.6479 108.817 15.6762 108.826 15.7028C108.834 15.7295 108.849 15.7537 108.869 15.7737C108.888 15.7937 108.912 15.809 108.939 15.8183Z" fill="black"/>
<path d="M91.3608 16.0021C91.1318 16.0665 91.205 16.1768 91.3608 16.3148C91.4615 16.2228 91.4615 16.0848 91.3608 16.0021Z" fill="black"/>
<path d="M110.523 16.324C110.523 16.2321 110.523 16.1309 110.523 16.0389C110.496 16.0816 110.482 16.131 110.482 16.1815C110.482 16.232 110.496 16.2814 110.523 16.324Z" fill="black"/>
<path d="M37.0333 17.6758C36.9692 17.9701 37.2532 17.7494 37.2898 17.6758C37.3264 17.6023 37.1158 17.5563 37.0333 17.6758Z" fill="black"/>
<path d="M14.7472 27.8937C14.7472 27.9764 14.8021 28.1604 14.9304 28.2248C14.967 28.096 14.9487 27.8937 14.7472 27.8937Z" fill="black"/>
<path d="M10.0116 30.7446C10.0116 30.947 9.91078 31.0297 10.1764 31.1953C10.1992 31.1556 10.213 31.1114 10.2169 31.0658C10.2208 31.0201 10.2147 30.9742 10.199 30.9312C10.1833 30.8882 10.1583 30.8493 10.1259 30.817C10.0935 30.7848 10.0545 30.7601 10.0116 30.7446Z" fill="black"/>
<path d="M87.0465 33.4576C87.1198 33.3104 87.0465 33.1816 86.8816 33.0989C86.7076 33.2184 86.9274 33.4116 87.0465 33.4576Z" fill="black"/>
<path d="M71.4288 15.0641C71.6028 14.8801 71.2364 14.7514 71.2181 14.8525C71.1998 14.9537 71.328 15.0457 71.4288 15.0641Z" fill="black"/>
<path d="M111.613 11.2014L111.43 11.045C111.348 11.2014 111.485 11.4037 111.613 11.2014Z" fill="black"/>
<path d="M33.8639 11.6981C33.8639 11.5418 33.754 11.505 33.6624 11.5786C33.5708 11.6521 33.7631 11.7901 33.8639 11.6981Z" fill="black"/>
<path d="M46.4038 11.7532L46.5962 11.6796C46.3489 11.3577 46.4862 11.7348 46.4038 11.7532Z" fill="black"/>
<path d="M18.7867 12.4061C18.7134 12.2774 18.7867 12.1486 18.5943 12.0842C18.5577 12.1762 18.6218 12.2866 18.7867 12.4061Z" fill="black"/>
<path d="M66.0519 12.351C65.9969 12.4675 66.0519 12.5503 66.2167 12.5993C66.2167 12.5993 66.1526 12.2223 66.0519 12.351Z" fill="black"/>
<path d="M5.76128 0.588326C5.66968 0.367603 5.81623 0.303232 5.52311 0.192871C5.49563 0.450381 5.57808 0.551539 5.76128 0.588326Z" fill="black"/>
<path d="M107.409 13.2248C107.62 13.1237 107.409 12.9121 107.409 12.9213C107.376 12.9648 107.357 13.0182 107.357 13.0731C107.357 13.128 107.376 13.1814 107.409 13.2248Z" fill="black"/>
<path d="M19.3363 13.2064L19.1715 13.1328C19.1532 13.188 19.2905 13.3259 19.3363 13.2064Z" fill="black"/>
<path d="M98.8261 13.4823L98.6887 13.372C98.6154 13.326 98.6613 13.841 98.8261 13.4823Z" fill="black"/>
<path d="M18.5028 14.1444C18.5944 14.034 18.5486 13.9328 18.347 13.8593C18.3562 13.8776 18.3654 14.2455 18.5028 14.1444Z" fill="black"/>
<path d="M62.7085 26.7165C62.7248 26.6506 62.7171 26.5811 62.6869 26.5204C62.6567 26.4597 62.6059 26.4119 62.5437 26.3854C62.5162 26.2015 62.617 26.9832 62.7085 26.7165Z" fill="black"/>
<path d="M32.9846 5.64647C32.9861 5.62113 32.9821 5.59576 32.9728 5.57215C32.9635 5.54854 32.9492 5.52724 32.9309 5.50973C32.9126 5.49222 32.8907 5.47895 32.8668 5.4708C32.8428 5.46265 32.8174 5.45984 32.7923 5.46255C32.664 5.49014 32.8656 5.70165 32.9846 5.64647Z" fill="black"/>
<path d="M50.6723 14.3652C50.6296 14.2365 50.5655 14.2089 50.48 14.2824C50.5258 14.402 50.6082 14.5399 50.6723 14.3652Z" fill="black"/>
<path d="M28.0841 6.26274C28.0897 6.18105 28.0731 6.09934 28.036 6.02642C27.9989 5.95351 27.9427 5.89213 27.8734 5.84888C27.9559 6.04201 27.8734 6.13399 28.0841 6.26274Z" fill="black"/>
<path d="M70.2838 6.19849C70.1464 6.27206 70.1464 6.36404 70.2838 6.4652C70.4396 6.37323 70.4304 6.29045 70.2838 6.19849Z" fill="black"/>
<path d="M35.8974 6.37305C35.8241 6.37305 35.8974 6.80529 36.044 6.53858C36.0408 6.49875 36.0247 6.46104 35.9983 6.43117C35.9718 6.4013 35.9364 6.38091 35.8974 6.37305Z" fill="black"/>
<path d="M69.1479 6.36394C69.1479 6.45591 69.148 6.4743 69.2579 6.41912C69.3678 6.36394 69.2212 6.29956 69.1479 6.36394Z" fill="black"/>
<path d="M84.5275 6.63994C84.8207 6.63994 84.5275 6.33643 84.5275 6.33643C84.4085 6.47438 84.4085 6.57556 84.5275 6.63994Z" fill="black"/>
<path d="M28.2031 6.52014C28.2031 6.70408 28.2856 6.79603 28.4504 6.79603C28.3588 6.64889 28.4138 6.57532 28.2031 6.52014Z" fill="black"/>
<path d="M40.2576 7.22839C40.2129 7.23294 40.171 7.25236 40.1385 7.28357L40.221 7.46752C40.3859 7.41234 40.395 7.32956 40.2576 7.22839Z" fill="black"/>
<path d="M28.881 14.6502L29.0367 14.7789C29.0562 14.7737 29.0744 14.7644 29.0902 14.7518C29.1059 14.7391 29.1189 14.7233 29.1283 14.7054C29.0733 14.5337 28.9909 14.5153 28.881 14.6502Z" fill="black"/>
<path d="M97.1132 8.41496C97.1957 8.34138 97.1957 8.25862 97.1132 8.16665C97.0308 8.07469 96.9392 8.44255 97.1132 8.41496Z" fill="black"/>
<path d="M30.6214 8.28601C30.484 8.40557 30.5023 8.49755 30.6855 8.56193C30.7771 8.46996 30.7496 8.37798 30.6214 8.28601Z" fill="black"/>
<path d="M108.82 8.58941C108.773 8.51789 108.71 8.45811 108.636 8.41467C108.572 8.56182 108.691 8.72737 108.82 8.58941Z" fill="black"/>
<path d="M25.336 14.9078C25.4002 14.779 25.336 14.687 25.1345 14.641C25.162 14.6318 25.336 14.9905 25.336 14.9078Z" fill="black"/>
<path d="M93.3485 8.49768C93.266 8.62644 93.4034 8.85636 93.5042 8.67242C93.4963 8.63195 93.4776 8.59435 93.4502 8.56361C93.4228 8.53286 93.3877 8.5101 93.3485 8.49768Z" fill="black"/>
<path d="M26.7375 14.9905C26.7375 14.9905 26.6184 14.7514 26.536 14.7146C26.481 14.8526 26.5268 15.0273 26.7375 14.9905Z" fill="black"/>
<path d="M49.0877 9.21497C49.054 9.17117 49.0234 9.12508 48.9961 9.07703C48.8496 9.18739 48.987 9.4265 49.0877 9.21497Z" fill="black"/>
<path d="M56.8096 25.2817C56.6997 25.3829 56.9012 25.5576 57.002 25.6128C57.1027 25.668 57.0752 26.3302 57.1668 26.0726C57.183 25.9923 57.1761 25.909 57.1469 25.8325C57.1177 25.756 57.0674 25.6894 57.002 25.6404C57.002 25.5209 57.0294 25.2817 56.8096 25.2817Z" fill="black"/>
<path d="M45.4054 0.661841C45.5062 0.60666 45.4879 0.523894 45.4054 0.422729C45.2497 0.496304 45.268 0.57907 45.4054 0.661841Z" fill="black"/>
<path d="M43.0605 0.77228C43.0605 0.643525 43.0056 0.625131 42.9048 0.77228C42.804 0.919428 42.9598 0.836657 43.0605 0.77228Z" fill="black"/>
<path d="M46.7795 0.855198C46.8436 0.79082 46.8253 0.726445 46.7795 0.671265C46.6513 0.754036 46.6696 0.809214 46.7795 0.855198Z" fill="black"/>
<path d="M66.0244 1.05732C66.1038 1.16155 66.1496 1.16155 66.1618 1.05732C66.0977 0.919369 66.0427 0.919369 66.0244 1.05732Z" fill="black"/>
<path d="M21.7179 1.67357C21.7179 1.67357 21.7179 1.53561 21.6263 1.52641C21.5347 1.51722 21.6721 1.66437 21.7179 1.67357Z" fill="black"/>
<path d="M55.5638 2.6485C55.5699 2.59775 55.5575 2.5465 55.5289 2.50424C55.5002 2.46197 55.4573 2.43155 55.4081 2.41858C55.4447 2.52894 55.3989 2.60251 55.5638 2.6485Z" fill="black"/>
<path d="M111.952 2.97021C111.952 2.97021 112.035 3.28291 112.117 3.20013C112.2 3.11736 112.126 3.007 111.952 2.97021Z" fill="black"/>
<path d="M111.201 3.81641C111.201 3.81641 111.201 4.08311 111.265 4.07392C111.329 4.06472 111.348 3.93596 111.201 3.81641Z" fill="black"/>
<path d="M36.2364 4.67175C36.1173 4.74533 36.1265 4.8189 36.2364 4.90167C36.3463 4.98444 36.3738 4.76372 36.2364 4.67175Z" fill="black"/>
<path d="M37.244 6.60297C37.3081 6.5202 37.2898 6.44662 37.244 6.37305C37.1066 6.47421 37.1249 6.55698 37.244 6.60297Z" fill="black"/>
<path d="M31.0976 6.93404C31.1087 6.88289 31.0997 6.82941 31.0724 6.78481C31.045 6.74022 31.0015 6.70802 30.951 6.69495C31.006 6.8145 30.8869 6.88806 31.0976 6.93404Z" fill="black"/>
<path d="M38.8194 7.19172C38.8744 7.2653 38.9293 7.2653 38.966 7.19172C39.0026 7.11815 38.8102 7.08136 38.8194 7.19172Z" fill="black"/>
<path d="M41.5399 7.32042L41.4575 7.13647C41.3476 7.22844 41.3934 7.32962 41.5399 7.32042Z" fill="black"/>
<path d="M42.6758 7.12732C42.7307 7.26527 42.6758 7.34804 42.8773 7.44001C42.8866 7.37229 42.8714 7.30344 42.8344 7.24604C42.7974 7.18864 42.7411 7.14652 42.6758 7.12732Z" fill="black"/>
<path d="M49.2068 7.35719C49.2068 7.49514 49.2618 7.51352 49.3259 7.42155C49.39 7.32958 49.2709 7.32041 49.2068 7.35719Z" fill="black"/>
<path d="M92.8263 7.73424C92.8263 7.8354 92.9179 7.86299 93.0003 7.81701C93.0828 7.77102 92.9087 7.64227 92.8263 7.73424Z" fill="black"/>
<path d="M66.7664 9.05859C66.8396 9.20574 66.8213 9.28852 66.9862 9.38049C66.9897 9.31006 66.9701 9.24043 66.9304 9.18228C66.8907 9.12413 66.8331 9.08067 66.7664 9.05859Z" fill="black"/>
<path d="M96.3804 9.38037C96.3804 9.49073 96.4262 9.54592 96.5544 9.56432C96.5086 9.51833 96.4903 9.40796 96.3804 9.38037Z" fill="black"/>
<path d="M82.6589 9.83118C82.5764 9.92314 82.5947 10.0243 82.723 10.1255C82.7047 10.0151 82.7871 9.90475 82.6589 9.83118Z" fill="black"/>
<path d="M93.3851 10.6588C93.3118 10.53 93.2477 10.4932 93.1836 10.5668C93.1195 10.6404 93.2844 10.7691 93.3851 10.6588Z" fill="black"/>
<path d="M112.932 11.4313C112.823 11.4313 112.804 11.4864 112.877 11.5968C113.024 11.5784 113.042 11.5232 112.932 11.4313Z" fill="black"/>
<path d="M30.4748 12.719C30.4619 12.7394 30.4546 12.7629 30.4536 12.787C30.4526 12.8111 30.458 12.8351 30.4691 12.8565C30.4802 12.8779 30.4967 12.896 30.517 12.909C30.5373 12.922 30.5606 12.9294 30.5847 12.9305C30.6854 12.8386 30.5847 12.7466 30.4748 12.719Z" fill="black"/>
<path d="M34.8533 13.4914C34.7708 13.4086 34.725 13.4086 34.6975 13.4914C34.6701 13.5742 34.7983 13.5742 34.8533 13.4914Z" fill="black"/>
<path d="M32.4166 13.8593C32.4166 13.988 32.4166 14.0524 32.5815 14.0616C32.5266 13.9972 32.5357 13.9052 32.4166 13.8593Z" fill="black"/>
<path d="M24.8506 14.0801C24.9513 14.2456 24.8506 14.3376 25.0979 14.3744C25.0843 14.3086 25.0545 14.2472 25.0113 14.1958C24.9682 14.1444 24.9129 14.1046 24.8506 14.0801Z" fill="black"/>
<path d="M37.995 14.5032C37.995 14.402 37.9034 14.3652 37.821 14.402C37.7385 14.4388 37.9034 14.6043 37.995 14.5032Z" fill="black"/>
<path d="M18.7684 14.5582C18.8783 14.3927 18.6401 14.4571 18.6035 14.4847C18.5669 14.5122 18.6951 14.6134 18.7684 14.5582Z" fill="black"/>
<path d="M39.2867 14.5674C39.2317 14.4478 39.1676 14.4386 39.1035 14.5674C39.0394 14.6961 39.2226 14.6594 39.2867 14.5674Z" fill="black"/>
<path d="M67.545 14.8709C67.6275 14.7881 67.6275 14.7421 67.545 14.7237C67.4626 14.7053 67.4717 14.8341 67.545 14.8709Z" fill="black"/>
<path d="M41.9979 14.825C41.8697 14.8709 41.8697 14.9445 41.9979 15.0365C42.1262 15.1284 42.1078 14.9261 41.9979 14.825Z" fill="black"/>
<path d="M91.7913 14.9722C91.8645 15.0887 91.9195 15.0887 91.9562 14.9722C91.8646 14.8618 91.8096 14.8618 91.7913 14.9722Z" fill="black"/>
<path d="M52.3487 15.0918C52.2662 15.1837 52.2937 15.2757 52.4494 15.3677C52.4494 15.3677 52.4586 15.0366 52.3487 15.0918Z" fill="black"/>
<path d="M71.6761 15.487C71.7494 15.4134 71.7219 15.3583 71.6119 15.3215C71.502 15.2847 71.5478 15.4594 71.6761 15.487Z" fill="black"/>
<path d="M81.9719 15.6528C82.091 15.6528 82.0818 15.5332 81.9719 15.4229C81.8528 15.4872 81.862 15.57 81.9719 15.6528Z" fill="black"/>
<path d="M71.8044 15.7354C71.8044 15.8641 71.8044 15.9469 72.0151 15.9653C71.951 15.9009 71.9418 15.7445 71.8044 15.7354Z" fill="black"/>
<path d="M31.1892 16.2137C31.1801 16.2317 31.1747 16.2513 31.1735 16.2715C31.1723 16.2917 31.1752 16.3119 31.182 16.3308C31.1889 16.3498 31.1996 16.3672 31.2135 16.3818C31.2273 16.3965 31.244 16.4081 31.2625 16.416C31.2625 16.416 31.1892 16.1309 31.1892 16.2137Z" fill="black"/>
<path d="M72.1799 16.4712C72.1518 16.3815 72.1333 16.289 72.1249 16.1953C72.0517 16.2781 72.0517 16.3977 72.1799 16.4712Z" fill="black"/>
<path d="M72.3356 16.5172C72.3079 16.5208 72.2798 16.5185 72.253 16.5106C72.2262 16.5027 72.2013 16.4893 72.1799 16.4712C72.2257 16.5724 72.2715 16.5907 72.3356 16.5172Z" fill="black"/>
<path d="M51.8998 16.5632C51.9731 16.4989 51.8998 16.4437 51.8265 16.3793C51.7533 16.3149 51.8998 16.5632 51.8998 16.5632Z" fill="black"/>
<path d="M85.013 7.40305C85.132 7.40305 85.1412 7.32028 85.0588 7.23751C84.9763 7.15474 84.9305 7.31108 85.013 7.40305Z" fill="black"/>
<path d="M107.217 10.5025C107.217 10.6313 107.308 10.6497 107.391 10.5761C107.473 10.5025 107.29 10.4473 107.217 10.5025Z" fill="black"/>
<path d="M87.9167 14.8066C87.9167 14.8893 87.9626 14.9169 88.0358 14.8709C88.1091 14.825 87.99 14.7514 87.9167 14.8066Z" fill="black"/>
<path d="M96.5453 9.57361C96.5453 9.64718 96.4812 9.67476 96.6186 9.78512C96.6827 9.64716 96.6553 9.64718 96.5453 9.57361Z" fill="black"/>
<path d="M37.528 7.14577C37.5829 7.24693 37.6287 7.26531 37.6654 7.19174C37.702 7.11816 37.5921 7.0538 37.528 7.14577Z" fill="black"/>
<path d="M70.577 6.72266C70.4488 6.72266 70.4304 6.76863 70.5129 6.8514C70.5953 6.93417 70.6228 6.79623 70.577 6.72266Z" fill="black"/>
<path d="M100.447 14.2915C100.447 14.3742 100.447 14.411 100.53 14.3834C100.612 14.3559 100.53 14.2455 100.447 14.2915Z" fill="black"/>
<path d="M38.5263 6.63073C38.5263 6.56635 38.5263 6.52036 38.4805 6.51116C38.4348 6.50197 38.4439 6.61233 38.5263 6.63073Z" fill="black"/>
<path d="M27.7818 5.73859C27.7527 5.62678 27.7312 5.51309 27.7177 5.39832C27.6863 5.45342 27.6755 5.51795 27.6872 5.58033C27.699 5.6427 27.7325 5.69881 27.7818 5.73859Z" fill="black"/>
<path d="M94.0354 14.0709C93.898 14.1445 93.9072 14.2181 94.0354 14.2825C94.0354 14.2457 94.0354 14.1537 94.0354 14.0709Z" fill="black"/>
<path d="M29.797 13.8317C29.797 13.9145 29.8794 13.9237 29.9436 13.8317C30.0077 13.7397 29.8336 13.7489 29.797 13.8317Z" fill="black"/>
<path d="M66.9679 13.7582C66.9679 13.6662 66.9679 13.6478 66.8488 13.6938C66.7297 13.7398 66.9037 13.795 66.9679 13.7582Z" fill="black"/>
<path d="M66.9312 4.62572C66.9312 4.53375 66.858 4.49695 66.7572 4.49695C66.8213 4.54293 66.803 4.61652 66.9312 4.62572Z" fill="black"/>
<path d="M91.1592 13.7397C91.2234 13.6661 91.205 13.5925 91.1592 13.5282C91.1134 13.4638 91.086 13.6569 91.1592 13.7397Z" fill="black"/>
<path d="M35.76 4.18436L35.9157 4.26713C36.0073 4.17516 35.8882 4.04641 35.76 4.18436Z" fill="black"/>
<path d="M43.6559 13.3259C43.7292 13.2615 43.72 13.2247 43.6101 13.2247C43.5002 13.2247 43.5643 13.3259 43.6559 13.3259Z" fill="black"/>
<path d="M45.3413 2.57485C45.2681 2.51967 45.2223 2.57484 45.2039 2.62083C45.1856 2.66681 45.323 2.65763 45.3413 2.57485Z" fill="black"/>
<path d="M107.876 16.0297C107.775 16.1216 107.785 16.2228 107.876 16.3424C107.904 16.2228 107.986 16.1492 107.876 16.0297Z" fill="black"/>
<path d="M17.8982 1.57236L17.7425 1.49878C17.7058 1.62753 17.8158 1.68272 17.8982 1.57236Z" fill="black"/>
<path d="M28.5604 16.085C28.565 16.1175 28.5817 16.147 28.6073 16.1675C28.6328 16.188 28.6652 16.198 28.6978 16.1953C28.6978 16.1953 28.6245 16.085 28.5604 16.085Z" fill="black"/>
<path d="M99.4765 12.4614C99.4307 12.5626 99.394 12.7465 99.5681 12.7925C99.5314 12.6362 99.6322 12.6454 99.4765 12.4614Z" fill="black"/>
<path d="M21.4156 12.4062C21.4006 12.427 21.39 12.4506 21.3846 12.4757C21.3792 12.5008 21.3791 12.5267 21.3843 12.5518C21.3895 12.5769 21.3998 12.6007 21.4147 12.6215C21.4295 12.6424 21.4486 12.6599 21.4706 12.673C21.4614 12.627 21.5255 12.5534 21.4156 12.4062Z" fill="black"/>
<path d="M31.5556 12.2683C31.5556 12.1855 31.4915 12.1579 31.4091 12.2039C31.3266 12.2499 31.4823 12.3051 31.5556 12.2683Z" fill="black"/>
<path d="M47.9702 11.9556C47.9702 12.0843 48.0252 12.1027 48.0985 12.0199C48.1717 11.9371 48.0435 11.9004 47.9702 11.9556Z" fill="black"/>
<path d="M23.6965 12.0292C23.7514 11.9649 23.6965 11.9189 23.6324 11.9005C23.5682 11.8821 23.6049 12.02 23.6965 12.0292Z" fill="black"/>
<path d="M109.919 15.2941C109.919 15.3677 109.983 15.3861 110.047 15.3493C110.111 15.3125 109.983 15.2573 109.919 15.2941Z" fill="black"/>
<path d="M19.4554 11.1738C19.4554 11.3026 19.3089 11.3302 19.5287 11.4221C19.6112 11.3578 19.5837 11.275 19.4554 11.1738Z" fill="black"/>
<path d="M83.126 10.7692C83.0619 10.8243 83.0619 10.8703 83.126 10.9255C83.1901 10.9807 83.1901 10.8151 83.126 10.7692Z" fill="black"/>
<path d="M108.691 10.5669C108.627 10.4933 108.581 10.4841 108.536 10.5669C108.49 10.6496 108.609 10.6312 108.691 10.5669Z" fill="black"/>
<path d="M32.9022 1.14029C32.9022 0.928765 32.8472 0.864392 32.7831 0.928769C32.8747 0.95636 32.9022 1.1127 32.9022 1.14029Z" fill="black"/>
<path d="M23.6873 2.85986C23.7066 2.93036 23.7343 2.99828 23.7697 3.06219L23.6873 2.85986Z" fill="black"/>
<path d="M86.4327 3.11754C86.4877 3.18192 86.5243 3.17272 86.5335 3.11754C86.5426 3.06236 86.4419 3.02557 86.4327 3.11754Z" fill="black"/>
<path d="M44.5078 3.51283C44.5078 3.41167 44.462 3.40247 44.407 3.51283C44.3521 3.62319 44.4528 3.58641 44.5078 3.51283Z" fill="black"/>
<path d="M110.972 3.48535C111.007 3.55724 111.037 3.63094 111.064 3.70609C111.036 3.64172 111.064 3.56812 110.972 3.48535Z" fill="black"/>
<path d="M109.8 3.56812C109.8 3.56812 109.8 3.69685 109.8 3.72444C109.8 3.75204 109.809 3.6141 109.8 3.56812Z" fill="black"/>
<path d="M85.7915 4.31294C85.8923 4.26696 85.8831 4.19338 85.7915 4.11061C85.6999 4.02784 85.7182 4.29455 85.7915 4.31294Z" fill="black"/>
<path d="M66.7572 4.49684C66.7412 4.4037 66.7198 4.31158 66.6931 4.22095C66.7114 4.31292 66.7298 4.40487 66.7572 4.49684Z" fill="black"/>
<path d="M42.74 4.74536C42.6484 4.79135 42.6576 4.85571 42.74 4.92928C42.74 4.84651 42.74 4.78215 42.74 4.74536Z" fill="black"/>
<path d="M37.9951 5.62823C38.0126 5.58076 38.0126 5.52855 37.9951 5.48108C37.8851 5.53626 37.8943 5.58225 37.9951 5.62823Z" fill="black"/>
<path d="M28.084 6.2627C28.1143 6.34985 28.1388 6.43893 28.1573 6.52938C28.1811 6.48389 28.1867 6.43103 28.1731 6.3815C28.1595 6.33197 28.1276 6.2895 28.084 6.2627Z" fill="black"/>
<path d="M65.2733 6.37316C65.2275 6.44674 65.2733 6.49272 65.2733 6.52031C65.2733 6.5479 65.374 6.29039 65.2733 6.37316Z" fill="black"/>
<path d="M65.4199 6.67665C65.5024 6.60307 65.4932 6.52951 65.4199 6.45593C65.2917 6.5479 65.3192 6.58468 65.4199 6.67665Z" fill="black"/>
<path d="M33.58 6.68579C33.58 6.68579 33.58 6.75937 33.58 6.80535C33.5932 6.76661 33.5932 6.72453 33.58 6.68579Z" fill="black"/>
<path d="M33.58 6.6859C33.58 6.58473 33.58 6.55714 33.4792 6.59393C33.5022 6.59993 33.5234 6.61145 33.5409 6.62747C33.5585 6.64348 33.5719 6.66353 33.58 6.6859Z" fill="black"/>
<path d="M28.4413 6.8053C28.4638 6.88788 28.4945 6.968 28.5329 7.04442C28.5064 6.96323 28.4758 6.88341 28.4413 6.8053Z" fill="black"/>
<path d="M32.38 6.88818C32.2884 6.96176 32.3342 7.02615 32.38 7.09972C32.3954 7.08677 32.4078 7.07059 32.4163 7.05232C32.4248 7.03404 32.4292 7.0141 32.4292 6.99394C32.4292 6.97377 32.4248 6.95386 32.4163 6.93559C32.4078 6.91731 32.3954 6.90113 32.38 6.88818Z" fill="black"/>
<path d="M70.8975 7.34803C70.9081 7.29337 70.9081 7.23716 70.8975 7.1825C70.7998 7.23768 70.7998 7.29285 70.8975 7.34803Z" fill="black"/>
<path d="M111.302 8.51599C111.294 8.56472 111.294 8.61441 111.302 8.66314C111.384 8.60796 111.375 8.56198 111.302 8.51599Z" fill="black"/>
<path d="M110.12 8.72754C110.12 8.72754 110.12 8.85631 110.184 8.91149C110.193 8.8779 110.192 8.84245 110.18 8.80969C110.169 8.77693 110.148 8.74834 110.12 8.72754Z" fill="black"/>
<path d="M70.5861 11.137L70.5037 10.9531C70.5243 11.0173 70.552 11.079 70.5861 11.137Z" fill="black"/>
<path d="M32.2244 11.3118C32.2462 11.3473 32.2707 11.3812 32.2976 11.4129C32.3434 11.3394 32.316 11.3118 32.2244 11.3118Z" fill="black"/>
<path d="M91.6539 12.2499C91.7364 12.4614 91.773 12.5166 91.7638 12.4338C91.7618 12.3965 91.7507 12.3603 91.7316 12.3282C91.7124 12.2962 91.6858 12.2693 91.6539 12.2499Z" fill="black"/>
<path d="M72.6655 12.673C72.6655 12.673 72.6655 12.6178 72.6655 12.5811C72.6625 12.6116 72.6625 12.6424 72.6655 12.673Z" fill="black"/>
<path d="M72.6654 12.673C72.6654 12.7833 72.7295 12.8201 72.7753 12.7649C72.75 12.7623 72.726 12.7522 72.7064 12.7358C72.6868 12.7194 72.6726 12.6975 72.6654 12.673Z" fill="black"/>
<path d="M72.8486 13.0132C72.822 12.932 72.7915 12.8522 72.757 12.774C72.7844 12.8476 72.7386 12.9212 72.8486 13.0132Z" fill="black"/>
<path d="M72.8486 13.0133C72.8816 13.0941 72.9091 13.1771 72.9311 13.2616C72.9434 13.2402 72.9511 13.2164 72.9536 13.1918C72.9561 13.1672 72.9533 13.1423 72.9455 13.1188C72.9378 13.0953 72.9251 13.0738 72.9084 13.0556C72.8917 13.0374 72.8713 13.023 72.8486 13.0133Z" fill="black"/>
<path d="M18.0081 13.2063C17.9623 13.2523 18.0081 13.3075 18.0081 13.3535C18.0048 13.3045 18.0048 13.2553 18.0081 13.2063Z" fill="black"/>
<path d="M88.5396 13.6294C88.5396 13.7214 88.5396 13.7306 88.6312 13.6294C88.7228 13.5282 88.5396 13.5558 88.5396 13.6294Z" fill="black"/>
<path d="M41.3659 13.8593C41.3747 13.8395 41.3793 13.8181 41.3794 13.7964C41.3795 13.7747 41.3751 13.7532 41.3665 13.7333C41.3579 13.7134 41.3452 13.6956 41.3293 13.6808C41.3135 13.6661 41.2947 13.6549 41.2743 13.6478C41.3109 13.7306 41.2193 13.7766 41.3659 13.8593Z" fill="black"/>
<path d="M27.4337 14.1262C27.4795 14.071 27.4337 14.0158 27.3787 13.9514C27.3971 14.0342 27.3146 14.0526 27.4337 14.1262Z" fill="black"/>
<path d="M33.8731 14.1721C33.8804 14.133 33.8756 14.0926 33.8592 14.0563C33.8428 14.0201 33.8157 13.9899 33.7815 13.9697C33.7815 14.1721 33.8181 14.2456 33.8731 14.1721Z" fill="black"/>
<path d="M42.7949 14.0709C42.8166 14.1421 42.8474 14.2101 42.8865 14.2733C42.859 14.2457 42.8224 14.1445 42.7949 14.0709Z" fill="black"/>
<path d="M25.1712 14.6411C25.1522 14.5508 25.1277 14.4617 25.0979 14.3744C25.1129 14.4656 25.1375 14.555 25.1712 14.6411Z" fill="black"/>
<path d="M27.8001 14.7055C27.7658 14.6398 27.7352 14.5723 27.7085 14.5032C27.7281 14.5751 27.759 14.6434 27.8001 14.7055Z" fill="black"/>
<path d="M44.517 14.9261C44.517 14.9261 44.517 14.8433 44.4712 14.7789C44.4071 14.8617 44.4254 14.9077 44.517 14.9261Z" fill="black"/>
<path d="M34.3861 15.1652C34.4685 15.1193 34.4594 15.0641 34.3861 14.9905C34.3128 14.9169 34.2853 15.1101 34.3861 15.1652Z" fill="black"/>
<path d="M29.4306 15.3584C29.3867 15.2845 29.3557 15.2036 29.339 15.1193C29.3269 15.1406 29.3197 15.1643 29.3178 15.1887C29.316 15.2132 29.3196 15.2377 29.3284 15.2606C29.3371 15.2835 29.3509 15.3041 29.3685 15.321C29.3862 15.3379 29.4074 15.3507 29.4306 15.3584Z" fill="black"/>
<path d="M28.249 15.432C28.249 15.432 28.194 15.2389 28.1666 15.2757C28.1391 15.3124 28.0841 15.4044 28.249 15.432Z" fill="black"/>
<path d="M29.4214 15.3675C29.4467 15.3788 29.4685 15.3968 29.4846 15.4194C29.5007 15.442 29.5105 15.4685 29.513 15.4962C29.5038 15.3675 29.4763 15.3123 29.4214 15.3675Z" fill="black"/>
<path d="M29.5129 15.4963C29.517 15.5269 29.517 15.5578 29.5129 15.5883C29.5184 15.5579 29.5184 15.5267 29.5129 15.4963Z" fill="black"/>
<path d="M99.8979 15.5699C99.8705 15.4949 99.8336 15.4238 99.788 15.3584L99.8979 15.5699Z" fill="black"/>
<path d="M28.2397 15.4413C28.2397 15.4413 28.2398 15.5701 28.3039 15.6252C28.3114 15.5916 28.3094 15.5565 28.2981 15.524C28.2867 15.4915 28.2665 15.4628 28.2397 15.4413Z" fill="black"/>
<path d="M38.7554 16.0849C38.7527 16.1221 38.7608 16.1592 38.7787 16.1919C38.7966 16.2245 38.8235 16.2513 38.8561 16.2689C38.792 16.0114 38.7645 15.947 38.7554 16.0849Z" fill="black"/>
<path d="M72.0517 16.2414C72.1249 16.177 72.0517 16.0298 71.9967 15.9655C71.9725 16.0107 71.9647 16.063 71.9747 16.1133C71.9848 16.1637 72.012 16.209 72.0517 16.2414Z" fill="black"/>
<path d="M111.723 16.085C111.723 16.085 111.723 16.2137 111.723 16.2597C111.723 16.3057 111.833 16.1769 111.723 16.085Z" fill="black"/>
<path d="M28.7161 16.3793C28.771 16.3149 28.7619 16.2597 28.7161 16.1953C28.6703 16.131 28.6611 16.3149 28.7161 16.3793Z" fill="black"/>
<path d="M32.9572 1.177C32.9609 1.20754 32.9609 1.23843 32.9572 1.26898C33.0396 1.23219 33.0213 1.20459 32.9572 1.177Z" fill="black"/>
<path d="M32.8838 1.14923H32.9571C32.9571 1.14923 32.9113 1.12163 32.8838 1.14923Z" fill="black"/>
<path d="M43.4544 1.55396C43.3994 1.45279 43.3536 1.41601 43.3078 1.47119C43.262 1.52637 43.4086 1.60914 43.4544 1.55396Z" fill="black"/>
<path d="M49.1977 2.74965C49.1519 2.63929 49.0969 2.60249 49.0511 2.65767C49.0053 2.71286 49.1519 2.79563 49.1977 2.74965Z" fill="black"/>
<path d="M23.504 2.74954C23.559 2.86909 23.6139 2.91507 23.6597 2.85989C23.7055 2.80471 23.5865 2.69436 23.504 2.74954Z" fill="black"/>
<path d="M111.045 3.7153C111.11 3.82566 111.164 3.86245 111.219 3.80727C111.274 3.75209 111.1 3.66931 111.045 3.7153Z" fill="black"/>
<path d="M27.9192 5.83961C27.8642 5.72925 27.8093 5.70166 27.7635 5.75684C27.7177 5.81202 27.8734 5.88559 27.9192 5.83961Z" fill="black"/>
<path d="M72.6745 12.5625C72.6196 12.4613 72.5646 12.4337 72.5188 12.4797C72.473 12.5257 72.6287 12.6177 72.6745 12.5625Z" fill="black"/>
<path d="M42.8682 14.2916C42.9231 14.402 42.9689 14.4387 43.0147 14.3836C43.0605 14.3284 42.914 14.2456 42.8682 14.2916Z" fill="black"/>
<path d="M27.223 16.085C27.278 16.1953 27.3329 16.2229 27.3787 16.1677C27.4245 16.1125 27.2688 16.085 27.223 16.085Z" fill="black"/>
<path d="M31.3633 16.5355C31.3633 16.4252 31.2992 16.3884 31.2443 16.4252C31.2692 16.4753 31.3116 16.5145 31.3633 16.5355Z" fill="black"/>
<path d="M18.4477 34.4785C18.4477 34.3773 18.4477 33.9359 18.3012 34.1566C18.1546 34.3773 18.3012 34.4141 18.4477 34.4785C18.5027 34.6072 18.5485 34.644 18.5943 34.5889C18.6401 34.5337 18.4935 34.4785 18.4477 34.4785Z" fill="black"/>
</g>
</svg>
