<svg width="5" height="8" viewBox="0 0 5 8" fill="none" xmlns="http://www.w3.org/2000/svg">
<path d="M1.4152e-06 0.850211L1.13981e-06 7.15039C0.000191872 7.21418 0.0169761 7.2767 0.048547 7.33123C0.0801179 7.38576 0.12528 7.43024 0.179171 7.45987C0.233063 7.4895 0.293645 7.50316 0.354394 7.49939C0.415143 7.49561 0.47376 7.47454 0.523935 7.43845L4.86501 4.28836C5.045 4.1578 5.045 3.8435 4.86501 3.71259L0.523936 0.562502C0.473865 0.52604 0.415219 0.504658 0.354368 0.500678C0.293518 0.496699 0.23279 0.510275 0.178784 0.539932C0.124778 0.569588 0.0795584 0.61419 0.048039 0.668893C0.0165195 0.723595 -9.49031e-05 0.786306 1.4152e-06 0.850211Z" fill="white"/>
</svg>
